ply
format ascii 1.0
comment Created by Blender 2.68 (sub 0) - www.blender.org, source file: 'pirate06.blend'
element vertex 358
property float x
property float y
property float z
property uchar red
property uchar green
property uchar blue
element face 335
property list uchar uint vertex_indices
end_header
0.032599 0.051638 0.000000 0 0 0
0.008716 0.056889 0.000000 0 0 0
0.008067 0.053936 0.000000 0 0 0
0.031950 0.048686 0.000000 0 0 0
0.031982 0.048831 0.000000 0 0 0
0.008100 0.054083 0.000000 83 43 33
0.000000 0.054437 0.000000 83 43 33
-0.012607 0.053886 0.000000 83 43 33
0.008067 0.053936 0.000000 83 43 33
0.031950 0.048686 0.000000 83 43 33
-0.020660 0.053093 0.000000 83 43 33
-0.028404 0.050744 0.000000 83 43 33
-0.035541 0.046929 0.000000 83 43 33
0.031982 0.048831 0.000000 83 43 33
0.035541 0.046929 0.000000 83 43 33
-0.041796 0.041796 0.000000 83 43 33
0.041796 0.041796 0.000000 83 43 33
-0.046929 0.035541 0.000000 83 43 33
0.000000 0.035848 0.000000 83 43 33
0.046929 0.035541 0.000000 83 43 33
-0.019208 0.033350 0.000000 83 43 33
0.019208 0.033350 0.000000 83 43 33
-0.050744 0.028404 0.000000 83 43 33
0.050744 0.028404 0.000000 83 43 33
-0.034811 0.025540 0.000000 83 43 33
0.034811 0.025540 0.000000 83 43 33
-0.053093 0.020660 0.000000 83 43 33
0.053093 0.020660 0.000000 83 43 33
-0.046426 0.014334 0.000000 83 43 33
0.046426 0.014334 0.000000 83 43 33
-0.053886 0.012607 0.000000 83 43 33
0.053886 0.012607 0.000000 83 43 33
-0.054437 0.000000 0.000000 83 43 33
0.054437 0.000000 0.000000 83 43 33
-0.003685 -0.019624 0.000000 255 255 255
0.003685 -0.019624 0.000000 255 255 255
0.010010 -0.021746 0.000000 255 255 255
-0.010010 -0.021746 0.000000 255 255 255
0.014738 -0.021181 0.000000 255 255 255
0.012928 -0.026740 0.000000 255 255 255
-0.012928 -0.026740 0.000000 255 255 255
-0.014738 -0.021181 0.000000 255 255 255
0.007369 -0.032444 0.000000 255 255 255
-0.007369 -0.032444 0.000000 255 255 255
0.000000 -0.034034 0.000000 255 255 255
-0.003907 -0.015429 0.000000 255 255 255
0.003907 -0.015429 0.000000 255 255 255
-0.000521 -0.005524 0.000000 255 255 255
0.000000 -0.005505 0.000000 255 255 255
0.000521 -0.005524 0.000000 255 255 255
0.001042 -0.005542 0.000000 255 255 255
-0.001042 -0.005542 0.000000 255 255 255
0.001563 -0.005561 0.000000 255 255 255
-0.001563 -0.005561 0.000000 255 255 255
0.002084 -0.005579 0.000000 255 255 255
-0.002084 -0.005579 0.000000 255 255 255
0.002605 -0.005598 0.000000 255 255 255
-0.002605 -0.005598 0.000000 255 255 255
0.003127 -0.005616 0.000000 255 255 255
-0.003127 -0.005616 0.000000 255 255 255
0.003648 -0.005635 0.000000 255 255 255
-0.003648 -0.005635 0.000000 255 255 255
0.004169 -0.005653 0.000000 255 255 255
-0.004169 -0.005653 0.000000 255 255 255
0.010366 -0.008089 0.000000 255 255 255
0.010875 -0.008290 0.000000 255 255 255
0.007814 -0.017361 0.000000 255 255 255
0.018972 -0.011472 0.000000 255 255 255
0.021114 -0.010228 0.000000 255 255 255
0.023231 -0.010100 0.000000 255 255 255
0.026242 -0.012353 0.000000 255 255 255
0.026768 -0.014168 0.000000 255 255 255
0.026371 -0.015572 0.000000 255 255 255
0.023490 -0.017324 0.000000 255 255 255
0.014474 -0.017855 0.000000 255 255 255
0.024407 -0.020569 0.000000 255 255 255
0.016196 -0.018532 0.000000 255 255 255
0.016918 -0.020902 0.000000 255 255 255
0.023741 -0.021868 0.000000 255 255 255
0.018381 -0.022437 0.000000 255 255 255
0.022120 -0.022838 0.000000 255 255 255
-0.018972 -0.011472 0.000000 255 255 255
-0.010875 -0.008290 0.000000 255 255 255
-0.007814 -0.017361 0.000000 255 255 255
-0.026242 -0.012353 0.000000 255 255 255
-0.023231 -0.010100 0.000000 255 255 255
-0.021114 -0.010228 0.000000 255 255 255
-0.026768 -0.014168 0.000000 255 255 255
-0.026371 -0.015572 0.000000 255 255 255
-0.023490 -0.017324 0.000000 255 255 255
-0.014474 -0.017855 0.000000 255 255 255
-0.024407 -0.020569 0.000000 255 255 255
-0.016196 -0.018532 0.000000 255 255 255
-0.016918 -0.020902 0.000000 255 255 255
-0.023741 -0.021868 0.000000 255 255 255
-0.018381 -0.022437 0.000000 255 255 255
-0.022120 -0.022838 0.000000 255 255 255
-0.010366 -0.008089 0.000000 255 255 255
-0.023741 0.005689 0.000000 255 255 255
-0.022120 0.006659 0.000000 255 255 255
-0.018381 0.006259 0.000000 255 255 255
-0.016918 0.004723 0.000000 255 255 255
-0.024407 0.004390 0.000000 255 255 255
-0.016196 0.002353 0.000000 255 255 255
-0.023490 0.001145 0.000000 255 255 255
-0.008100 -0.000830 0.000000 255 255 255
-0.026371 -0.000606 0.000000 255 255 255
-0.026768 -0.002011 0.000000 255 255 255
-0.007339 -0.001129 0.000000 255 255 255
-0.004169 -0.003197 0.000000 255 255 255
-0.026242 -0.003825 0.000000 255 255 255
-0.018972 -0.004706 0.000000 255 255 255
-0.023231 -0.006079 0.000000 255 255 255
-0.010875 -0.007889 0.000000 255 255 255
-0.021114 -0.005950 0.000000 255 255 255
0.018381 0.006259 0.000000 255 255 255
0.022120 0.006659 0.000000 255 255 255
0.023741 0.005689 0.000000 255 255 255
0.016918 0.004723 0.000000 255 255 255
0.024407 0.004390 0.000000 255 255 255
0.016196 0.002353 0.000000 255 255 255
0.023490 0.001145 0.000000 255 255 255
0.008100 -0.000830 0.000000 255 255 255
0.026371 -0.000606 0.000000 255 255 255
0.026768 -0.002011 0.000000 255 255 255
0.007339 -0.001129 0.000000 255 255 255
0.004169 -0.003197 0.000000 255 255 255
0.026242 -0.003825 0.000000 255 255 255
0.023231 -0.006079 0.000000 255 255 255
0.018972 -0.004706 0.000000 255 255 255
0.021114 -0.005950 0.000000 255 255 255
0.010875 -0.007889 0.000000 255 255 255
-0.004169 0.000926 0.000000 255 255 255
0.000000 0.001867 0.000000 255 255 255
0.004169 0.000926 0.000000 255 255 255
0.007313 -0.000885 0.000000 255 255 255
-0.007313 -0.000885 0.000000 255 255 255
0.003127 -0.003151 0.000000 255 255 255
0.000000 -0.003011 0.000000 255 255 255
-0.003127 -0.003151 0.000000 255 255 255
0.000521 -0.003034 0.000000 255 255 255
-0.000521 -0.003034 0.000000 255 255 255
0.001563 -0.003081 0.000000 255 255 255
0.001042 -0.003058 0.000000 255 255 255
-0.001042 -0.003058 0.000000 255 255 255
-0.001563 -0.003081 0.000000 255 255 255
0.002084 -0.003104 0.000000 255 255 255
-0.002084 -0.003104 0.000000 255 255 255
0.002605 -0.003127 0.000000 255 255 255
-0.002605 -0.003127 0.000000 255 255 255
0.003648 -0.003174 0.000000 255 255 255
-0.003648 -0.003174 0.000000 255 255 255
0.007369 -0.032444 0.000000 0 0 0
0.012928 -0.026740 0.000000 0 0 0
0.050744 -0.028404 0.000000 0 0 0
-0.007369 -0.032444 0.000000 0 0 0
-0.050744 -0.028404 0.000000 0 0 0
-0.012928 -0.026740 0.000000 0 0 0
0.046929 -0.035541 0.000000 0 0 0
-0.046929 -0.035541 0.000000 0 0 0
0.000000 -0.034034 0.000000 0 0 0
0.041796 -0.041796 0.000000 0 0 0
-0.041796 -0.041796 0.000000 0 0 0
0.035541 -0.046929 0.000000 0 0 0
-0.035541 -0.046929 0.000000 0 0 0
0.028404 -0.050744 0.000000 0 0 0
-0.028404 -0.050744 0.000000 0 0 0
0.020660 -0.053093 0.000000 0 0 0
-0.020660 -0.053093 0.000000 0 0 0
0.012607 -0.053886 0.000000 0 0 0
-0.012607 -0.053886 0.000000 0 0 0
0.000000 -0.054437 0.000000 0 0 0
-0.016196 -0.018532 0.000000 0 0 0
-0.014474 -0.017855 0.000000 0 0 0
-0.014738 -0.021181 0.000000 0 0 0
-0.016918 -0.020902 0.000000 0 0 0
-0.018381 -0.022437 0.000000 0 0 0
-0.022120 -0.022838 0.000000 0 0 0
0.014738 -0.021181 0.000000 0 0 0
0.014474 -0.017855 0.000000 0 0 0
0.016196 -0.018532 0.000000 0 0 0
0.016918 -0.020902 0.000000 0 0 0
0.018381 -0.022437 0.000000 0 0 0
0.022120 -0.022838 0.000000 0 0 0
0.026242 -0.012353 0.000000 0 0 0
0.023231 -0.010100 0.000000 0 0 0
0.053886 -0.012607 0.000000 0 0 0
0.026768 -0.014168 0.000000 0 0 0
0.053093 -0.020660 0.000000 0 0 0
0.026371 -0.015572 0.000000 0 0 0
0.023490 -0.017324 0.000000 0 0 0
0.024407 -0.020569 0.000000 0 0 0
0.023741 -0.021868 0.000000 0 0 0
-0.053886 -0.012607 0.000000 0 0 0
-0.023231 -0.010100 0.000000 0 0 0
-0.026242 -0.012353 0.000000 0 0 0
-0.026768 -0.014168 0.000000 0 0 0
-0.053093 -0.020660 0.000000 0 0 0
-0.026371 -0.015572 0.000000 0 0 0
-0.023490 -0.017324 0.000000 0 0 0
-0.024407 -0.020569 0.000000 0 0 0
-0.023741 -0.021868 0.000000 0 0 0
0.026371 -0.000606 0.000000 0 0 0
0.054437 0.000000 0.000000 0 0 0
0.026768 -0.002011 0.000000 0 0 0
0.026242 -0.003825 0.000000 0 0 0
0.023231 -0.006079 0.000000 0 0 0
0.021114 -0.005950 0.000000 0 0 0
0.010875 -0.007889 0.000000 0 0 0
0.018972 -0.004706 0.000000 0 0 0
0.010366 -0.008089 0.000000 0 0 0
0.010875 -0.008290 0.000000 0 0 0
0.021114 -0.010228 0.000000 0 0 0
0.018972 -0.011472 0.000000 0 0 0
-0.054437 0.000000 0.000000 0 0 0
-0.026371 -0.000606 0.000000 0 0 0
-0.026768 -0.002011 0.000000 0 0 0
-0.026242 -0.003825 0.000000 0 0 0
-0.023231 -0.006079 0.000000 0 0 0
-0.021114 -0.005950 0.000000 0 0 0
-0.018972 -0.004706 0.000000 0 0 0
-0.010875 -0.007889 0.000000 0 0 0
-0.010366 -0.008089 0.000000 0 0 0
-0.010875 -0.008290 0.000000 0 0 0
-0.018972 -0.011472 0.000000 0 0 0
-0.021114 -0.010228 0.000000 0 0 0
-0.019208 0.033350 0.000000 0 0 0
0.000000 0.035848 0.000000 0 0 0
0.019208 0.033350 0.000000 0 0 0
0.022120 0.006659 0.000000 0 0 0
-0.022120 0.006659 0.000000 0 0 0
0.018381 0.006259 0.000000 0 0 0
-0.018381 0.006259 0.000000 0 0 0
0.016918 0.004723 0.000000 0 0 0
-0.016918 0.004723 0.000000 0 0 0
0.016196 0.002353 0.000000 0 0 0
-0.016196 0.002353 0.000000 0 0 0
0.008100 -0.000830 0.000000 0 0 0
0.004169 0.000926 0.000000 0 0 0
0.000000 0.001867 0.000000 0 0 0
-0.004169 0.000926 0.000000 0 0 0
-0.008100 -0.000830 0.000000 0 0 0
0.007313 -0.000885 0.000000 0 0 0
-0.007313 -0.000885 0.000000 0 0 0
0.007339 -0.001129 0.000000 0 0 0
-0.007339 -0.001129 0.000000 0 0 0
0.034811 0.025540 0.000000 0 0 0
0.046426 0.014334 0.000000 0 0 0
0.023741 0.005689 0.000000 0 0 0
0.024407 0.004390 0.000000 0 0 0
0.023490 0.001145 0.000000 0 0 0
-0.034811 0.025540 0.000000 0 0 0
-0.046426 0.014334 0.000000 0 0 0
-0.023741 0.005689 0.000000 0 0 0
-0.024407 0.004390 0.000000 0 0 0
-0.023490 0.001145 0.000000 0 0 0
-0.003685 -0.019624 0.000000 0 0 0
-0.010010 -0.021746 0.000000 0 0 0
-0.007814 -0.017361 0.000000 0 0 0
-0.003907 -0.015429 0.000000 0 0 0
0.010010 -0.021746 0.000000 0 0 0
0.003685 -0.019624 0.000000 0 0 0
0.003907 -0.015429 0.000000 0 0 0
0.007814 -0.017361 0.000000 0 0 0
0.003571 -0.004726 0.000000 255 255 255
0.004092 -0.004745 0.000000 255 255 255
0.002744 -0.004582 0.000000 255 255 255
0.003265 -0.004600 0.000000 255 255 255
0.003678 -0.004098 0.000000 255 255 255
0.003157 -0.004074 0.000000 255 255 255
0.002626 -0.004180 -0.000000 255 255 255
0.002105 -0.004156 -0.000000 255 255 255
0.001671 -0.004452 0.000000 255 255 255
0.002192 -0.004471 0.000000 255 255 255
0.001591 -0.004364 0.000000 0 0 0
0.001563 -0.003081 0.000000 0 0 0
0.002084 -0.003104 0.000000 0 0 0
0.002105 -0.004156 -0.000000 0 0 0
0.002192 -0.004471 0.000000 0 0 0
0.001671 -0.004452 0.000000 0 0 0
0.002626 -0.004180 -0.000000 0 0 0
0.002744 -0.004582 0.000000 0 0 0
0.002084 -0.005579 0.000000 0 0 0
0.002605 -0.005598 0.000000 0 0 0
-0.003617 -0.004418 0.000000 255 255 255
-0.003096 -0.004400 0.000000 255 255 255
-0.002575 -0.004443 0.000000 255 255 255
-0.002054 -0.004424 0.000000 255 255 255
-0.001563 -0.004406 0.000000 255 255 255
-0.001042 -0.004387 0.000000 255 255 255
-0.000475 -0.004369 0.000000 255 255 255
0.000046 -0.004350 0.000000 255 255 255
0.000521 -0.004174 -0.000000 255 255 255
0.001042 -0.004192 -0.000000 255 255 255
0.001042 -0.005542 0.000000 0 0 0
0.001042 -0.004192 -0.000000 0 0 0
0.001070 -0.004341 0.000000 0 0 0
0.001563 -0.005561 0.000000 0 0 0
0.000495 -0.004179 0.000000 0 0 0
0.000521 -0.003034 0.000000 0 0 0
0.001042 -0.003058 0.000000 0 0 0
0.000521 -0.004174 -0.000000 0 0 0
0.001591 -0.004364 0.000000 255 255 255
0.001070 -0.004341 0.000000 255 255 255
0.003265 -0.004600 0.000000 0 0 0
0.003157 -0.004074 0.000000 0 0 0
0.003678 -0.004098 0.000000 0 0 0
0.003571 -0.004726 0.000000 0 0 0
0.003127 -0.005616 0.000000 0 0 0
0.003648 -0.005635 0.000000 0 0 0
0.002605 -0.003127 0.000000 0 0 0
0.003127 -0.003151 0.000000 0 0 0
0.000046 -0.004350 0.000000 0 0 0
-0.000026 -0.004156 0.000000 0 0 0
0.000521 -0.005524 0.000000 0 0 0
0.000000 -0.005505 0.000000 0 0 0
0.000495 -0.004179 0.000000 255 255 255
-0.000026 -0.004156 0.000000 255 255 255
-0.000521 -0.003034 0.000000 0 0 0
0.000000 -0.003011 0.000000 0 0 0
-0.000459 -0.004105 0.000000 0 0 0
-0.000475 -0.004369 0.000000 0 0 0
-0.000981 -0.004128 0.000000 0 0 0
-0.001042 -0.004387 0.000000 0 0 0
-0.000521 -0.005524 0.000000 0 0 0
-0.001042 -0.005542 0.000000 0 0 0
-0.000459 -0.004105 0.000000 255 255 255
-0.000981 -0.004128 0.000000 255 255 255
-0.001563 -0.003081 0.000000 0 0 0
-0.001042 -0.003058 0.000000 0 0 0
-0.001484 -0.004172 0.000000 0 0 0
-0.001563 -0.004406 0.000000 0 0 0
-0.002005 -0.004195 0.000000 0 0 0
-0.002054 -0.004424 0.000000 0 0 0
-0.001563 -0.005561 0.000000 0 0 0
-0.002084 -0.005579 0.000000 0 0 0
-0.001484 -0.004172 0.000000 255 255 255
-0.002005 -0.004195 0.000000 255 255 255
-0.002482 -0.003959 0.000000 255 255 255
-0.003003 -0.003982 0.000000 255 255 255
-0.003401 -0.004098 0.000000 255 255 255
-0.003922 -0.004121 0.000000 255 255 255
-0.004169 -0.003197 0.000000 0 0 0
-0.003922 -0.004121 0.000000 0 0 0
-0.004169 -0.005653 0.000000 0 0 0
-0.003617 -0.004418 0.000000 0 0 0
-0.003648 -0.005635 0.000000 0 0 0
-0.003401 -0.004098 0.000000 0 0 0
-0.003096 -0.004400 0.000000 0 0 0
-0.003648 -0.003174 0.000000 0 0 0
-0.003127 -0.003151 0.000000 0 0 0
-0.003003 -0.003982 0.000000 0 0 0
-0.002575 -0.004443 0.000000 0 0 0
-0.003127 -0.005616 0.000000 0 0 0
-0.002605 -0.005598 0.000000 0 0 0
-0.002482 -0.003959 0.000000 0 0 0
-0.002605 -0.003127 0.000000 0 0 0
-0.002084 -0.003104 0.000000 0 0 0
3 0 1 2
3 3 4 2
3 4 0 2
3 5 6 7
3 8 5 7
3 9 8 7
3 9 7 10
3 9 10 11
3 9 11 12
3 13 9 14
3 9 12 14
3 12 15 14
3 15 16 14
3 15 17 16
3 17 18 16
3 18 19 16
3 17 20 18
3 18 21 19
3 17 22 20
3 21 23 19
3 22 24 20
3 21 25 23
3 22 26 24
3 25 27 23
3 26 28 24
3 25 29 27
3 26 30 28
3 29 31 27
3 30 32 28
3 29 33 31
3 34 35 36
3 37 34 36
3 36 38 39
3 40 41 37
3 37 36 39
3 40 37 39
3 40 39 42
3 43 40 42
3 44 43 42
4 45 46 35 34
3 47 48 49
3 47 49 50
3 51 47 50
3 51 50 52
3 53 51 52
3 53 52 54
3 55 53 54
3 55 54 56
3 57 55 56
3 57 56 58
3 59 57 58
3 59 58 60
3 61 59 60
3 61 60 62
3 61 62 63
3 62 46 63
3 46 45 63
3 46 62 64
3 46 64 65
3 46 65 66
3 66 65 67
3 68 69 70
3 67 68 70
3 66 67 70
3 66 70 71
3 66 71 72
3 66 72 73
3 74 73 75
3 74 66 73
3 74 36 66
3 76 74 75
3 74 38 36
3 77 76 75
3 77 75 78
3 79 77 78
3 79 78 80
3 81 82 83
3 84 85 86
3 84 86 81
3 84 81 83
3 87 84 83
3 88 87 83
3 89 88 83
3 89 83 90
3 91 89 90
3 83 37 90
3 37 41 90
3 91 90 92
3 93 91 92
3 93 94 91
3 93 95 94
3 95 96 94
3 63 45 97
3 45 82 97
3 45 83 82
3 98 99 100
3 98 100 101
3 102 98 101
3 102 101 103
3 104 102 103
3 104 103 105
3 106 104 105
3 107 106 105
3 107 105 108
3 107 108 109
3 110 107 109
3 110 109 63
3 110 63 111
3 112 110 111
3 63 113 111
3 114 112 111
3 63 97 113
3 115 116 117
3 118 115 117
3 118 117 119
3 120 118 119
3 120 119 121
3 122 120 121
3 122 121 123
3 122 123 124
3 125 122 124
3 126 125 124
3 126 124 127
3 62 126 127
3 128 129 127
3 129 62 127
3 128 130 129
3 129 131 62
3 131 64 62
3 132 133 134
3 132 134 135
3 132 135 136
3 135 125 136
3 125 108 136
3 125 126 108
3 126 137 108
3 137 138 108
3 138 139 108
3 139 109 108
3 137 140 138
3 138 141 139
3 137 142 140
3 142 143 140
3 141 144 145
3 141 145 139
3 137 146 142
3 145 147 139
3 137 148 146
3 147 149 139
3 126 150 137
3 139 151 109
3 152 153 154
3 155 156 157
3 152 154 158
3 155 159 156
3 160 152 158
3 155 160 159
3 160 158 159
3 158 161 159
3 161 162 159
3 161 163 162
3 163 164 162
3 163 165 164
3 165 166 164
3 165 167 166
3 167 168 166
3 167 169 168
3 169 170 168
3 169 171 170
3 172 173 174
3 175 172 174
3 176 175 174
3 176 174 157
3 176 157 177
3 157 156 177
3 178 179 180
3 181 178 180
3 181 182 178
3 182 153 178
3 182 183 153
3 183 154 153
3 184 185 186
3 187 184 186
3 187 186 188
3 189 187 188
3 190 189 188
3 190 188 191
3 188 192 191
3 188 154 192
3 154 183 192
3 193 194 195
3 193 195 196
3 197 193 196
3 198 197 196
3 198 199 197
3 199 200 197
3 200 201 197
3 201 156 197
3 201 177 156
3 202 203 186
3 204 202 186
3 205 204 186
3 206 205 186
3 207 208 209
3 207 206 208
3 206 186 208
3 186 210 208
3 186 211 210
3 186 185 211
3 185 212 211
3 212 213 211
3 193 214 215
3 193 215 216
3 193 216 217
3 193 217 218
3 219 220 221
3 218 219 221
3 193 218 221
3 193 221 222
3 193 222 223
3 224 225 223
3 225 194 223
3 194 193 223
3 226 227 228
3 226 228 229
3 230 226 229
3 230 229 231
3 232 230 231
3 233 232 231
3 233 234 232
3 233 235 234
3 235 236 234
3 235 237 238
3 235 238 239
3 235 239 236
3 239 240 236
3 240 241 236
3 237 242 238
3 240 243 241
3 237 244 242
3 243 245 241
3 229 228 246
3 229 246 247
3 229 247 203
3 248 229 203
3 249 248 203
3 250 249 203
3 250 203 202
3 251 226 230
3 252 251 230
3 214 252 230
3 214 230 253
3 254 214 253
3 254 255 214
3 255 215 214
4 256 257 258 259
4 260 261 262 263
4 60 264 265 62
4 56 266 267 58
4 150 268 269 137
4 148 270 271 146
4 52 272 273 54
3 274 275 276
3 274 276 277
3 274 277 278
3 274 278 279
3 278 277 280
3 281 278 280
3 281 282 278
3 281 283 282
4 61 284 285 59
4 57 286 287 55
4 53 288 289 51
4 47 290 291 48
4 49 292 293 50
3 294 295 296
3 294 296 274
3 279 294 274
3 279 297 294
3 298 299 300
3 300 296 295
3 300 295 301
3 298 300 301
4 142 302 303 143
3 304 305 306
3 307 304 306
3 307 308 304
3 307 309 308
3 150 126 268
3 126 62 265
3 126 265 268
3 265 264 268
3 280 310 311
3 280 311 305
3 280 305 304
3 280 304 281
3 312 313 298
3 301 314 298
3 314 312 298
3 314 315 312
4 140 316 317 138
3 318 319 313
3 320 318 313
3 320 313 321
3 313 312 321
3 321 322 320
3 321 323 322
3 321 324 323
3 324 325 323
4 141 326 327 144
3 328 329 322
3 330 328 322
3 330 322 323
3 330 323 331
3 331 332 330
3 331 333 332
3 331 334 333
3 334 335 333
4 145 336 337 147
4 149 338 339 139
4 151 340 341 109
3 342 343 344
3 343 345 344
3 345 346 344
4 345 343 347 348
3 349 350 351
3 347 349 351
3 352 347 351
3 352 348 347
3 352 353 348
3 352 354 353
4 352 351 355 333
3 356 357 332
3 356 332 355
3 332 333 355
