ply
format ascii 1.0
comment Created by Blender 2.68 (sub 0) - www.blender.org, source file: 'wood_wall00.blend'
element vertex 30
property float x
property float y
property float z
property uchar red
property uchar green
property uchar blue
element face 8
property list uchar uint vertex_indices
end_header
0.125000 0.250000 0.000000 107 62 30
-0.250000 -0.125000 0.000000 107 62 30
-0.250000 0.000000 0.000000 107 62 30
0.000000 0.250000 0.000000 107 62 30
-0.250000 0.125000 0.000000 107 62 30
-0.125000 0.250000 0.000000 107 62 30
-0.250000 0.250000 0.000000 107 62 30
-0.250000 0.125000 0.000000 161 127 53
-0.125000 0.250000 0.000000 161 127 53
0.000000 0.250000 0.000000 161 127 53
-0.250000 0.000000 0.000000 161 127 53
-0.250000 -0.125000 0.000000 161 127 53
0.125000 0.250000 0.000000 161 127 53
0.250000 0.250000 0.000000 161 127 53
-0.250000 -0.250000 0.000000 161 127 53
0.250000 0.125000 0.000000 107 62 30
-0.125000 -0.250000 0.000000 107 62 30
-0.250000 -0.250000 0.000000 107 62 30
0.250000 0.250000 0.000000 107 62 30
-0.125000 -0.250000 0.000000 161 127 53
0.250000 0.125000 0.000000 161 127 53
0.250000 0.000000 0.000000 161 127 53
0.000000 -0.250000 0.000000 161 127 53
0.250000 -0.125000 0.000000 107 62 30
0.125000 -0.250000 0.000000 107 62 30
0.000000 -0.250000 0.000000 107 62 30
0.250000 0.000000 0.000000 107 62 30
0.250000 -0.125000 0.000000 161 127 53
0.250000 -0.250000 0.000000 161 127 53
0.125000 -0.250000 0.000000 161 127 53
4 0 1 2 3
3 4 5 6
4 7 8 9 10
4 11 12 13 14
4 15 16 17 18
4 19 20 21 22
4 23 24 25 26
3 27 28 29
