ply
format ascii 1.0
comment Created by Blender 2.68 (sub 0) - www.blender.org, source file: 'placeholder_corpse.blend'
element vertex 64
property float x
property float y
property float z
property uchar red
property uchar green
property uchar blue
element face 42
property list uchar uint vertex_indices
end_header
0.021769 -0.142107 0.000000 0 0 0
0.043354 -0.142107 0.000000 0 0 0
0.043354 -0.162897 0.000000 0 0 0
0.031381 -0.162897 0.000000 0 0 0
-0.021401 -0.142107 0.000000 0 0 0
0.000184 -0.142107 0.000000 0 0 0
0.000184 -0.162897 0.000000 0 0 0
-0.031013 -0.162897 0.000000 0 0 0
-0.021401 -0.100528 0.000000 0 0 0
0.000184 -0.100528 0.000000 0 0 0
0.000184 -0.121318 0.000000 0 0 0
-0.021401 -0.121318 0.000000 0 0 0
0.021769 -0.100528 0.000000 0 0 0
0.043354 -0.100528 0.000000 0 0 0
0.043354 -0.121318 0.000000 0 0 0
0.021769 -0.121318 0.000000 0 0 0
0.031903 -0.033840 0.000000 0 0 0
0.010318 -0.033840 0.000000 0 0 0
0.010229 0.012059 0.000000 0 0 0
0.031815 0.012059 0.000000 0 0 0
-0.029892 -0.034631 0.000000 0 0 0
-0.051477 -0.034631 0.000000 0 0 0
-0.054288 0.009383 0.000000 0 0 0
-0.032703 0.009383 0.000000 0 0 0
0.062825 -0.130780 0.000000 0 0 0
0.062825 -0.109990 0.000000 0 0 0
0.097061 -0.083348 0.000000 0 0 0
0.097061 -0.104137 0.000000 0 0 0
-0.060225 -0.132634 0.000000 0 0 0
-0.060225 -0.153423 0.000000 0 0 0
-0.093366 -0.120977 0.000000 0 0 0
-0.093366 -0.100188 0.000000 0 0 0
-0.042986 -0.142107 0.000000 0 0 0
-0.042986 -0.162897 0.000000 0 0 0
-0.042986 -0.121318 0.000000 0 0 0
-0.042986 -0.100528 0.000000 0 0 0
-0.042986 -0.079739 0.000000 0 0 0
-0.021401 -0.079739 0.000000 0 0 0
0.000184 -0.079739 0.000000 0 0 0
0.021769 -0.079739 0.000000 0 0 0
0.043354 -0.079739 0.000000 0 0 0
0.053488 -0.033840 0.000000 0 0 0
0.053400 0.012059 0.000000 0 0 0
-0.008306 -0.034631 0.000000 0 0 0
-0.011118 0.009383 0.000000 0 0 0
0.062825 -0.151569 0.000000 0 0 0
0.097061 -0.124926 0.000000 0 0 0
-0.060225 -0.111845 0.000000 0 0 0
-0.093366 -0.079398 0.000000 0 0 0
-0.000806 -0.168752 0.000000 0 0 0
0.032056 -0.178509 0.000000 0 0 0
0.038256 -0.237975 0.000000 0 0 0
0.000160 -0.237975 0.000000 0 0 0
0.067553 -0.237975 0.000000 0 0 0
0.060270 -0.283599 0.000000 0 0 0
0.033717 -0.297442 0.000000 0 0 0
-0.037936 -0.237975 0.000000 0 0 0
0.001127 -0.307199 0.000000 0 0 0
-0.031736 -0.297442 0.000000 0 0 0
0.058763 -0.192351 0.000000 0 0 0
-0.067232 -0.237975 0.000000 0 0 0
-0.058443 -0.283599 0.000000 0 0 0
-0.059949 -0.192351 0.000000 0 0 0
-0.033397 -0.178509 0.000000 0 0 0
4 0 1 2 3
4 4 5 6 7
4 8 9 10 11
4 12 13 14 15
4 16 17 18 19
4 20 21 22 23
4 24 25 26 27
4 28 29 30 31
4 5 0 3 6
4 10 15 0 5
4 15 14 1 0
4 32 4 7 33
4 34 11 4 32
4 11 10 5 4
4 35 8 11 34
4 36 37 8 35
4 37 38 9 8
4 9 12 15 10
4 38 39 12 9
4 39 40 13 12
4 41 16 19 42
4 40 39 16 41
4 39 38 17 16
4 43 20 23 44
4 38 37 20 43
4 37 36 21 20
4 45 24 27 46
4 2 1 24 45
4 1 14 25 24
4 47 28 31 48
4 34 32 28 47
4 32 33 29 28
4 49 50 51 52
4 3 50 49 6
4 51 53 54 55
4 56 52 57 58
4 52 51 55 57
4 50 59 53 51
4 60 56 58 61
4 62 63 56 60
4 63 49 52 56
4 63 7 6 49
