ply
format ascii 1.0
comment Created by Blender 2.68 (sub 0) - www.blender.org, source file: 'roundyrect_crosshair01.blend'
element vertex 89
property float x
property float y
property float z
property uchar red
property uchar green
property uchar blue
element face 72
property list uchar uint vertex_indices
end_header
0.015000 -0.050000 0.000000 255 255 255
0.035000 -0.050000 0.000000 255 255 255
0.035000 -0.035000 0.000000 255 255 255
0.015000 -0.035000 0.000000 255 255 255
0.050000 -0.035000 0.000000 255 255 255
0.050000 -0.015000 0.000000 255 255 255
0.035000 -0.015000 0.000000 255 255 255
0.037926 -0.049712 0.000000 255 255 255
0.040740 -0.048858 0.000000 255 255 255
0.043334 -0.047472 0.000000 255 255 255
0.045607 -0.045607 0.000000 255 255 255
0.047472 -0.043334 0.000000 255 255 255
0.048858 -0.040740 0.000000 255 255 255
0.049712 -0.037926 0.000000 255 255 255
-0.015000 -0.050000 0.000000 255 255 255
-0.015000 -0.035000 0.000000 255 255 255
-0.035000 -0.035000 0.000000 255 255 255
-0.035000 -0.050000 0.000000 255 255 255
-0.035000 -0.015000 0.000000 255 255 255
-0.050000 -0.015000 0.000000 255 255 255
-0.050000 -0.035000 0.000000 255 255 255
-0.037926 -0.049712 0.000000 255 255 255
-0.040740 -0.048858 0.000000 255 255 255
-0.043334 -0.047472 0.000000 255 255 255
-0.045607 -0.045607 0.000000 255 255 255
-0.047472 -0.043334 0.000000 255 255 255
-0.048858 -0.040740 0.000000 255 255 255
-0.049712 -0.037926 0.000000 255 255 255
0.015000 0.050000 0.000000 255 255 255
0.015000 0.035000 0.000000 255 255 255
0.035000 0.035000 0.000000 255 255 255
0.035000 0.050000 0.000000 255 255 255
0.035000 0.015000 0.000000 255 255 255
0.050000 0.015000 0.000000 255 255 255
0.050000 0.035000 0.000000 255 255 255
0.037926 0.049712 0.000000 255 255 255
0.040740 0.048858 0.000000 255 255 255
0.043334 0.047472 0.000000 255 255 255
0.045607 0.045607 0.000000 255 255 255
0.047472 0.043334 0.000000 255 255 255
0.048858 0.040740 0.000000 255 255 255
0.049712 0.037926 0.000000 255 255 255
-0.015000 0.050000 0.000000 255 255 255
-0.035000 0.050000 0.000000 255 255 255
-0.035000 0.035000 0.000000 255 255 255
-0.015000 0.035000 0.000000 255 255 255
-0.050000 0.035000 0.000000 255 255 255
-0.050000 0.015000 0.000000 255 255 255
-0.035000 0.015000 0.000000 255 255 255
-0.037926 0.049712 0.000000 255 255 255
-0.040740 0.048858 0.000000 255 255 255
-0.043334 0.047472 0.000000 255 255 255
-0.045607 0.045607 0.000000 255 255 255
-0.047472 0.043334 0.000000 255 255 255
-0.048858 0.040740 0.000000 255 255 255
-0.049712 0.037926 0.000000 255 255 255
0.000000 0.000000 0.000000 255 255 255
0.000000 0.012500 0.000000 255 255 255
-0.002439 0.012260 0.000000 255 255 255
-0.004784 0.011548 0.000000 255 255 255
-0.006945 0.010393 0.000000 255 255 255
-0.008839 0.008839 0.000000 255 255 255
-0.010393 0.006945 0.000000 255 255 255
-0.011548 0.004784 0.000000 255 255 255
-0.012260 0.002439 0.000000 255 255 255
-0.012500 0.000000 0.000000 255 255 255
-0.012260 -0.002439 0.000000 255 255 255
-0.011548 -0.004784 0.000000 255 255 255
-0.010393 -0.006945 0.000000 255 255 255
-0.008839 -0.008839 0.000000 255 255 255
-0.006945 -0.010393 0.000000 255 255 255
-0.004784 -0.011548 0.000000 255 255 255
-0.002439 -0.012260 0.000000 255 255 255
0.000000 -0.012500 0.000000 255 255 255
0.002439 -0.012260 0.000000 255 255 255
0.004784 -0.011548 0.000000 255 255 255
0.006945 -0.010393 0.000000 255 255 255
0.008839 -0.008839 0.000000 255 255 255
0.010393 -0.006945 0.000000 255 255 255
0.011548 -0.004784 0.000000 255 255 255
0.012260 -0.002439 0.000000 255 255 255
0.012500 0.000000 0.000000 255 255 255
0.012260 0.002439 0.000000 255 255 255
0.011548 0.004784 0.000000 255 255 255
0.010393 0.006945 0.000000 255 255 255
0.008839 0.008839 0.000000 255 255 255
0.006945 0.010393 0.000000 255 255 255
0.004784 0.011549 0.000000 255 255 255
0.002439 0.012260 0.000000 255 255 255
4 0 1 2 3
4 2 4 5 6
3 2 1 7
3 2 7 8
3 2 8 9
3 2 9 10
3 2 10 11
3 2 11 12
3 2 12 13
3 2 13 4
4 14 15 16 17
4 16 18 19 20
3 16 21 17
3 16 22 21
3 16 23 22
3 16 24 23
3 16 25 24
3 16 26 25
3 16 27 26
3 16 20 27
4 28 29 30 31
4 30 32 33 34
3 30 35 31
3 30 36 35
3 30 37 36
3 30 38 37
3 30 39 38
3 30 40 39
3 30 41 40
3 30 34 41
4 42 43 44 45
4 44 46 47 48
3 44 43 49
3 44 49 50
3 44 50 51
3 44 51 52
3 44 52 53
3 44 53 54
3 44 54 55
3 44 55 46
3 56 57 58
3 56 58 59
3 56 59 60
3 56 60 61
3 56 61 62
3 56 62 63
3 56 63 64
3 56 64 65
3 56 65 66
3 56 66 67
3 56 67 68
3 56 68 69
3 56 69 70
3 56 70 71
3 56 71 72
3 56 72 73
3 56 73 74
3 56 74 75
3 56 75 76
3 56 76 77
3 56 77 78
3 56 78 79
3 56 79 80
3 56 80 81
3 56 81 82
3 56 82 83
3 56 83 84
3 56 84 85
3 56 85 86
3 56 86 87
3 56 87 88
3 56 88 57
