ply
format ascii 1.0
comment Created by Blender 2.68 (sub 0) - www.blender.org, source file: 'evil_bullet00.blend'
element vertex 113
property float x
property float y
property float z
property uchar red
property uchar green
property uchar blue
element face 84
property list uchar uint vertex_indices
end_header
0.017658 -0.066138 0.000000 255 0 24
0.021184 -0.065068 0.000000 255 0 24
0.022908 -0.069220 0.000000 255 0 24
0.018522 -0.070551 0.000000 255 0 24
0.029621 -0.058145 0.000000 255 0 24
0.031358 -0.054895 0.000000 255 0 24
0.035562 -0.056567 0.000000 255 0 24
0.033401 -0.060609 0.000000 255 0 24
0.024434 -0.063331 0.000000 255 0 24
0.026950 -0.067059 0.000000 255 0 24
0.032428 -0.051368 0.000000 255 0 24
0.036892 -0.052180 0.000000 255 0 24
0.032789 -0.047701 0.000000 255 0 24
0.032789 0.000000 0.000000 255 0 24
0.037342 0.000000 0.000000 255 0 24
0.037342 -0.047619 0.000000 255 0 24
0.013991 -0.066499 0.000000 255 0 24
0.013961 -0.071000 0.000000 255 0 24
0.027283 -0.060993 0.000000 255 0 24
0.030494 -0.064152 0.000000 255 0 24
0.000000 -0.066499 0.000000 255 0 24
0.000000 -0.071000 0.000000 255 0 24
0.013991 -0.047701 0.000000 255 0 24
0.013991 0.000000 0.000000 255 0 24
0.000000 -0.047701 0.000000 255 0 24
0.000000 0.000000 0.000000 255 0 24
-0.017658 -0.066138 0.000000 255 0 24
-0.018522 -0.070551 0.000000 255 0 24
-0.022908 -0.069220 0.000000 255 0 24
-0.021184 -0.065068 0.000000 255 0 24
-0.029621 -0.058145 0.000000 255 0 24
-0.033401 -0.060609 0.000000 255 0 24
-0.035562 -0.056567 0.000000 255 0 24
-0.031358 -0.054895 0.000000 255 0 24
-0.026950 -0.067059 0.000000 255 0 24
-0.024434 -0.063331 0.000000 255 0 24
-0.036892 -0.052180 0.000000 255 0 24
-0.032428 -0.051368 0.000000 255 0 24
-0.032789 -0.047701 0.000000 255 0 24
-0.037342 -0.047619 0.000000 255 0 24
-0.037342 0.000000 0.000000 255 0 24
-0.032789 0.000000 0.000000 255 0 24
-0.013991 -0.066499 0.000000 255 0 24
-0.013961 -0.071000 0.000000 255 0 24
-0.030494 -0.064152 0.000000 255 0 24
-0.027283 -0.060993 0.000000 255 0 24
-0.013991 -0.047701 0.000000 255 0 24
-0.013991 0.000000 0.000000 255 0 24
0.017658 0.066138 0.000000 255 0 24
0.018522 0.070551 0.000000 255 0 24
0.022908 0.069220 0.000000 255 0 24
0.021184 0.065068 0.000000 255 0 24
0.029621 0.058145 0.000000 255 0 24
0.033401 0.060609 0.000000 255 0 24
0.035562 0.056567 0.000000 255 0 24
0.031358 0.054895 0.000000 255 0 24
0.026950 0.067059 0.000000 255 0 24
0.024434 0.063331 0.000000 255 0 24
0.036892 0.052180 0.000000 255 0 24
0.032428 0.051368 0.000000 255 0 24
0.032789 0.047701 0.000000 255 0 24
0.037342 0.047619 0.000000 255 0 24
0.013991 0.066499 0.000000 255 0 24
0.013961 0.071000 0.000000 255 0 24
0.030494 0.064152 0.000000 255 0 24
0.027283 0.060993 0.000000 255 0 24
0.000000 0.066499 0.000000 255 0 24
0.000000 0.071000 0.000000 255 0 24
0.013991 0.047701 0.000000 255 210 170
0.032789 0.047701 0.000000 255 210 170
0.032789 0.000000 0.000000 255 210 170
0.013991 0.000000 0.000000 255 210 170
0.000000 0.047701 0.000000 255 210 170
0.000000 0.000000 0.000000 255 210 170
0.000000 0.066499 0.000000 255 210 170
0.013991 0.066499 0.000000 255 210 170
0.017658 0.066138 0.000000 255 210 170
0.021184 0.065068 0.000000 255 210 170
0.024434 0.063331 0.000000 255 210 170
0.027283 0.060993 0.000000 255 210 170
0.029621 0.058145 0.000000 255 210 170
0.031358 0.054895 0.000000 255 210 170
0.032428 0.051368 0.000000 255 210 170
-0.017658 0.066138 0.000000 255 0 24
-0.021184 0.065068 0.000000 255 0 24
-0.022908 0.069220 0.000000 255 0 24
-0.018522 0.070551 0.000000 255 0 24
-0.029621 0.058145 0.000000 255 0 24
-0.031358 0.054895 0.000000 255 0 24
-0.035562 0.056567 0.000000 255 0 24
-0.033401 0.060609 0.000000 255 0 24
-0.024434 0.063331 0.000000 255 0 24
-0.026950 0.067059 0.000000 255 0 24
-0.032428 0.051368 0.000000 255 0 24
-0.036892 0.052180 0.000000 255 0 24
-0.032789 0.047701 0.000000 255 0 24
-0.037342 0.047619 0.000000 255 0 24
-0.013991 0.066499 0.000000 255 0 24
-0.013961 0.071000 0.000000 255 0 24
-0.027283 0.060993 0.000000 255 0 24
-0.030494 0.064152 0.000000 255 0 24
-0.013991 0.047701 0.000000 255 210 170
-0.013991 0.000000 0.000000 255 210 170
-0.032789 0.000000 0.000000 255 210 170
-0.032789 0.047701 0.000000 255 210 170
-0.013991 0.066499 0.000000 255 210 170
-0.017658 0.066138 0.000000 255 210 170
-0.021184 0.065068 0.000000 255 210 170
-0.024434 0.063331 0.000000 255 210 170
-0.027283 0.060993 0.000000 255 210 170
-0.029621 0.058145 0.000000 255 210 170
-0.031358 0.054895 0.000000 255 210 170
-0.032428 0.051368 0.000000 255 210 170
4 0 1 2 3
4 4 5 6 7
4 1 8 9 2
4 5 10 11 6
4 12 13 14 15
4 16 0 3 17
4 8 18 19 9
4 18 4 7 19
4 10 12 15 11
4 20 16 17 21
4 22 23 13 12
4 24 25 23 22
4 22 16 20 24
3 0 16 22
3 22 1 0
3 22 8 1
3 22 18 8
3 22 4 18
3 22 5 4
3 22 10 5
3 22 12 10
4 26 27 28 29
4 30 31 32 33
4 29 28 34 35
4 33 32 36 37
4 38 39 40 41
4 42 43 27 26
4 35 34 44 45
4 45 44 31 30
4 37 36 39 38
4 20 21 43 42
4 46 38 41 47
4 24 46 47 25
4 20 42 46 24
3 46 42 26
3 46 26 29
3 46 29 35
3 46 35 45
3 46 45 30
3 46 30 33
3 46 33 37
3 46 37 38
4 48 49 50 51
4 52 53 54 55
4 51 50 56 57
4 55 54 58 59
4 60 61 14 13
4 62 63 49 48
4 57 56 64 65
4 65 64 53 52
4 59 58 61 60
4 66 67 63 62
4 68 69 70 71
4 72 68 71 73
4 74 75 68 72
3 68 75 76
3 68 76 77
3 68 77 78
3 68 78 79
3 68 79 80
3 68 80 81
3 68 81 82
3 68 82 69
4 83 84 85 86
4 87 88 89 90
4 84 91 92 85
4 88 93 94 89
4 95 41 40 96
4 97 83 86 98
4 91 99 100 92
4 99 87 90 100
4 93 95 96 94
4 66 97 98 67
4 101 102 103 104
4 72 73 102 101
4 74 72 101 105
3 101 106 105
3 101 107 106
3 101 108 107
3 101 109 108
3 101 110 109
3 101 111 110
3 101 112 111
3 101 104 112
