ply
format ascii 1.0
comment Created by Blender 2.68 (sub 0) - www.blender.org, source file: 'gib.blend'
element vertex 33
property float x
property float y
property float z
property uchar red
property uchar green
property uchar blue
element face 16
property list uchar uint vertex_indices
end_header
0.004809 0.004860 0.000000 255 0 21
0.010076 0.004516 0.000000 255 0 21
0.008317 0.009235 0.000000 255 0 21
0.005127 0.010586 0.000000 255 0 21
-0.004516 0.005191 0.000000 255 0 21
0.000000 0.005000 0.000000 255 0 21
0.000000 0.010000 0.000000 255 0 21
-0.004082 0.009822 0.000000 255 0 21
-0.004732 -0.004656 0.000000 255 154 158
0.000000 -0.005000 0.000000 255 154 158
0.000000 0.000000 0.000000 255 154 158
-0.005000 0.000000 0.000000 255 154 158
0.004783 -0.004618 0.000000 255 0 21
0.008394 -0.004796 0.000000 255 0 21
0.010000 0.000000 0.000000 255 0 21
0.005000 0.000000 0.000000 255 0 21
0.005000 0.000000 0.000000 255 154 158
0.004809 0.004860 0.000000 255 154 158
0.000000 0.005000 0.000000 255 154 158
-0.009796 0.005535 0.000000 255 0 21
-0.008062 0.009031 0.000000 255 0 21
-0.009184 0.000714 0.000000 255 0 21
-0.005000 0.000000 0.000000 255 0 21
-0.004516 0.005191 0.000000 255 154 158
-0.009465 -0.004312 0.000000 255 0 21
-0.004732 -0.004656 0.000000 255 0 21
-0.007246 -0.008164 0.000000 255 0 21
-0.004465 -0.009312 0.000000 255 0 21
0.000000 -0.010000 0.000000 255 0 21
0.000000 -0.005000 0.000000 255 0 21
0.004783 -0.004618 0.000000 255 154 158
0.004567 -0.008878 0.000000 255 0 21
0.008062 -0.007348 0.000000 255 0 21
4 0 1 2 3
4 4 5 6 7
4 8 9 10 11
4 12 13 14 15
4 5 0 3 6
4 10 16 17 18
4 15 14 1 0
4 19 4 7 20
4 21 22 4 19
4 11 10 18 23
4 24 25 22 21
4 26 27 25 24
4 27 28 29 25
4 9 30 16 10
4 28 31 12 29
4 31 32 13 12
