ply
format ascii 1.0
comment Created by Blender 2.68 (sub 0) - www.blender.org, source file: 'player.blend'
element vertex 48
property float x
property float y
property float z
property uchar red
property uchar green
property uchar blue
element face 38
property list uchar uint vertex_indices
end_header
-0.049775 0.019369 0.000000 124 0 255
-0.019592 0.041020 0.000000 124 0 255
-0.050518 0.011819 0.000000 124 0 255
-0.039184 0.039184 0.000000 124 0 255
-0.043996 0.033319 0.000000 124 0 255
-0.050518 -0.011819 0.000000 124 0 255
-0.051035 0.000000 0.000000 124 0 255
0.000000 0.041939 0.000000 124 0 255
0.043996 -0.033319 0.000000 124 0 255
0.026629 -0.047572 0.000000 124 0 255
0.049775 -0.019369 0.000000 124 0 255
0.039184 0.039184 0.000000 124 0 255
0.043996 0.033319 0.000000 124 0 255
0.019592 0.041020 0.000000 124 0 255
-0.047572 0.026629 0.000000 124 0 255
0.047572 0.026629 0.000000 124 0 255
0.000000 -0.051035 0.000000 124 0 255
0.050518 -0.011819 0.000000 124 0 255
0.011819 -0.050518 0.000000 124 0 255
0.049775 0.019369 0.000000 124 0 255
0.051035 0.000000 0.000000 124 0 255
0.050518 0.011819 0.000000 124 0 255
-0.049775 -0.019369 0.000000 124 0 255
-0.011819 -0.050518 0.000000 124 0 255
-0.033319 -0.043996 0.000000 124 0 255
-0.043996 -0.033319 0.000000 124 0 255
0.000000 0.041939 0.000000 0 155 36
0.019592 0.041020 0.000000 0 155 36
0.011819 0.050518 0.000000 0 155 36
0.000000 0.051035 0.000000 0 155 36
0.047572 -0.026629 0.000000 124 0 255
-0.047572 -0.026629 0.000000 124 0 255
-0.019592 0.041020 0.000000 0 155 36
-0.011819 0.050518 0.000000 0 155 36
-0.019369 0.049775 0.000000 0 155 36
-0.026629 0.047572 0.000000 0 155 36
-0.026629 -0.047572 0.000000 124 0 255
0.039184 -0.039184 0.000000 124 0 255
-0.019369 -0.049775 0.000000 124 0 255
0.033319 -0.043996 0.000000 124 0 255
-0.039184 -0.039184 0.000000 124 0 255
0.019369 -0.049775 0.000000 124 0 255
0.019369 0.049775 0.000000 0 155 36
0.039184 0.039184 0.000000 0 155 36
0.033319 0.043996 0.000000 0 155 36
-0.033319 0.043996 0.000000 0 155 36
-0.039184 0.039184 0.000000 0 155 36
0.026629 0.047572 0.000000 0 155 36
3 0 1 2
3 3 1 4
3 5 6 7
3 8 9 10
3 11 12 13
3 14 1 0
3 12 15 13
4 16 7 17 18
3 15 19 13
3 7 6 1
3 20 7 13
3 13 19 21
3 21 20 13
3 6 2 1
3 20 17 7
3 22 5 23
3 24 25 22
4 26 27 28 29
3 30 8 10
3 25 31 22
3 17 10 18
3 23 24 22
4 32 33 34 35
3 36 24 23
3 8 37 9
3 38 36 23
3 39 9 37
3 24 40 25
3 41 18 9
3 18 10 9
3 4 1 14
4 23 5 7 16
4 32 26 29 33
3 27 42 28
3 43 44 27
3 45 32 35
3 32 45 46
4 47 42 27 44
