ply
format ascii 1.0
comment Created by Blender 2.68 (sub 0) - www.blender.org, source file: 'person01.blend'
element vertex 206
property float x
property float y
property float z
property uchar red
property uchar green
property uchar blue
element face 96
property list uchar uint vertex_indices
end_header
0.024337 -0.028149 0.000000 78 68 61
0.031483 -0.021994 0.000000 78 68 61
0.033930 -0.013608 0.000000 78 68 61
0.023275 -0.010720 0.000000 78 68 61
0.042848 0.024860 0.000000 148 121 102
0.039765 0.031407 0.000000 148 121 102
0.033845 0.038616 0.000000 148 121 102
0.030810 0.033270 0.000000 148 121 102
0.035765 0.008333 0.000000 71 62 56
0.046438 0.008333 0.000000 71 62 56
0.045200 0.016667 0.000000 71 62 56
0.035765 0.016667 0.000000 71 62 56
0.025505 0.008864 0.000000 78 68 61
0.035765 0.008333 0.000000 78 68 61
0.035765 0.016667 0.000000 78 68 61
0.025399 0.016667 0.000000 78 68 61
0.031483 -0.021994 0.000000 71 62 56
0.043585 -0.021939 0.000000 71 62 56
0.045200 -0.016667 0.000000 71 62 56
0.033930 -0.013608 0.000000 71 62 56
0.025399 0.037637 0.000000 148 121 102
0.025399 0.044627 0.000000 148 121 102
0.046438 -0.008333 0.000000 235 235 235
0.045200 -0.016667 0.000000 235 235 235
0.073567 -0.016667 0.000000 235 235 235
0.073567 -0.007719 0.000000 235 235 235
0.000000 -0.033333 0.000000 78 68 61
0.014475 -0.032646 0.000000 78 68 61
0.013625 -0.015392 0.000000 78 68 61
0.000000 -0.016667 0.000000 78 68 61
0.000000 0.008333 0.000000 116 102 91
0.014475 0.008333 0.000000 117 103 92
0.014475 0.016667 0.000000 117 103 92
0.000000 0.016667 0.000000 115 101 91
0.014475 0.008333 0.000000 99 87 78
0.025505 0.008864 0.000000 99 87 78
0.025399 0.016667 0.000000 99 87 78
0.014475 0.016667 0.000000 99 87 78
0.000000 0.041667 0.000000 148 121 102
0.014475 0.040636 0.000000 148 121 102
0.014475 0.048626 0.000000 148 121 102
0.000000 0.050000 0.000000 148 121 102
0.034847 -0.006804 0.000000 71 62 56
0.046438 -0.008333 0.000000 71 62 56
0.046792 0.000000 0.000000 71 62 56
0.035765 0.000000 0.000000 71 62 56
0.024443 -0.004829 0.000000 78 68 61
0.034847 -0.006804 0.000000 78 68 61
0.035765 0.000000 0.000000 78 68 61
0.025611 0.001062 0.000000 78 68 61
0.046438 0.008333 0.000000 255 255 255
0.046792 0.000000 0.000000 255 255 255
0.073567 0.000000 0.000000 255 255 255
0.073567 0.007924 0.000000 255 255 255
0.000000 -0.008333 0.000000 99 87 78
0.014050 -0.007696 0.000000 99 87 78
0.014475 0.000000 0.000000 99 87 78
0.000000 0.000000 0.000000 99 87 78
0.024443 -0.004829 0.000000 99 87 78
0.025611 0.001062 0.000000 99 87 78
0.025399 -0.044627 0.000000 71 62 56
0.035765 -0.038332 0.000000 71 62 56
0.024337 -0.028149 0.000000 71 62 56
0.041969 -0.027211 0.000000 71 62 56
0.000000 -0.050000 0.000000 71 62 56
0.014475 -0.048626 0.000000 71 62 56
0.014475 -0.032646 0.000000 71 62 56
0.000000 -0.033333 0.000000 71 62 56
0.045200 0.016667 0.000000 149 122 103
0.043940 0.022081 0.000000 148 121 102
0.033818 0.027145 0.000000 148 121 102
0.035765 0.016667 0.000000 148 121 102
0.025399 0.016667 0.000000 189 154 130
0.035765 0.016667 0.000000 189 154 130
0.033818 0.027145 0.000000 189 154 130
0.022214 0.028523 0.000000 189 154 130
0.000000 0.016667 0.000000 207 169 143
0.014475 0.016667 0.000000 207 169 143
0.011643 0.033354 0.000000 207 169 143
0.000000 0.033333 0.000000 207 169 143
0.014475 0.016667 0.000000 189 154 130
0.011643 0.033354 0.000000 189 154 130
0.030810 0.033270 0.000000 189 154 130
0.025399 0.037637 0.000000 189 154 130
0.000000 0.033333 0.000000 189 154 130
0.014475 0.040636 0.000000 189 154 130
0.000000 0.041667 0.000000 189 154 130
0.082572 -0.015122 0.000000 235 235 235
0.080733 -0.006189 0.000000 235 235 235
0.083289 0.000102 0.000000 255 255 255
0.081167 0.006676 0.000000 255 255 255
0.087418 -0.011613 0.000000 235 235 235
0.090194 -0.004936 0.000000 235 235 235
0.081167 0.006676 0.000000 235 235 235
0.083289 0.000102 0.000000 235 235 235
0.091152 0.000000 0.000000 235 235 235
0.090194 0.004936 0.000000 235 235 235
0.000000 0.000000 0.000000 117 103 92
0.014475 0.000000 0.000000 117 103 92
0.045200 0.016667 0.000000 235 235 235
0.046438 0.008333 0.000000 235 235 235
0.073567 0.007924 0.000000 235 235 235
0.073567 0.016667 0.000000 235 235 235
0.082572 0.015122 0.000000 235 235 235
0.087418 0.011613 0.000000 235 235 235
0.046438 -0.008333 0.000000 255 255 255
0.073567 -0.007719 0.000000 255 255 255
0.000000 -0.016667 0.000000 99 87 78
0.013625 -0.015392 0.000000 99 87 78
0.023275 -0.010720 0.000000 99 87 78
0.080733 -0.006189 0.000000 255 255 255
-0.024337 -0.028149 0.000000 78 68 61
-0.023275 -0.010720 0.000000 78 68 61
-0.033930 -0.013608 0.000000 78 68 61
-0.031483 -0.021994 0.000000 78 68 61
-0.042848 0.024860 0.000000 148 121 102
-0.030810 0.033270 0.000000 148 121 102
-0.033845 0.038616 0.000000 148 121 102
-0.039765 0.031407 0.000000 148 121 102
-0.035765 0.008333 0.000000 71 62 56
-0.035765 0.016667 0.000000 71 62 56
-0.045200 0.016667 0.000000 71 62 56
-0.046438 0.008333 0.000000 71 62 56
-0.025505 0.008864 0.000000 78 68 61
-0.025399 0.016667 0.000000 78 68 61
-0.035765 0.016667 0.000000 78 68 61
-0.035765 0.008333 0.000000 78 68 61
-0.031483 -0.021994 0.000000 71 62 56
-0.033930 -0.013608 0.000000 71 62 56
-0.045200 -0.016667 0.000000 71 62 56
-0.043585 -0.021939 0.000000 71 62 56
-0.025399 0.037637 0.000000 148 121 102
-0.025399 0.044627 0.000000 148 121 102
-0.046438 -0.008333 0.000000 235 235 235
-0.073567 -0.007719 0.000000 235 235 235
-0.073567 -0.016667 0.000000 235 235 235
-0.045200 -0.016667 0.000000 235 235 235
-0.013625 -0.015392 0.000000 78 68 61
-0.014475 -0.032646 0.000000 78 68 61
-0.014475 0.016667 0.000000 117 103 92
-0.014475 0.008333 0.000000 117 103 92
-0.014475 0.008333 0.000000 99 87 78
-0.014475 0.016667 0.000000 99 87 78
-0.025399 0.016667 0.000000 99 87 78
-0.025505 0.008864 0.000000 99 87 78
-0.014475 0.048626 0.000000 148 121 102
-0.014475 0.040636 0.000000 148 121 102
-0.034847 -0.006804 0.000000 71 62 56
-0.035765 0.000000 0.000000 71 62 56
-0.046792 0.000000 0.000000 71 62 56
-0.046438 -0.008333 0.000000 71 62 56
-0.024443 -0.004829 0.000000 78 68 61
-0.025611 0.001062 0.000000 78 68 61
-0.035765 0.000000 0.000000 78 68 61
-0.034847 -0.006804 0.000000 78 68 61
-0.046438 0.008333 0.000000 255 255 255
-0.073567 0.007924 0.000000 255 255 255
-0.073567 0.000000 0.000000 255 255 255
-0.046792 0.000000 0.000000 255 255 255
-0.014475 0.000000 0.000000 99 87 78
-0.014050 -0.007696 0.000000 99 87 78
-0.025611 0.001062 0.000000 99 87 78
-0.024443 -0.004829 0.000000 99 87 78
-0.025399 -0.044627 0.000000 71 62 56
-0.024337 -0.028149 0.000000 71 62 56
-0.035765 -0.038332 0.000000 71 62 56
-0.041969 -0.027211 0.000000 71 62 56
-0.014475 -0.032646 0.000000 71 62 56
-0.014475 -0.048626 0.000000 71 62 56
-0.045200 0.016667 0.000000 149 122 103
-0.035765 0.016667 0.000000 148 121 102
-0.033818 0.027145 0.000000 148 121 102
-0.043940 0.022081 0.000000 148 121 102
-0.025399 0.016667 0.000000 189 154 130
-0.022214 0.028523 0.000000 189 154 130
-0.033818 0.027145 0.000000 189 154 130
-0.035765 0.016667 0.000000 189 154 130
-0.011643 0.033354 0.000000 207 169 143
-0.014475 0.016667 0.000000 207 169 143
-0.014475 0.016667 0.000000 189 154 130
-0.011643 0.033354 0.000000 189 154 130
-0.025399 0.037637 0.000000 189 154 130
-0.030810 0.033270 0.000000 189 154 130
-0.014475 0.040636 0.000000 189 154 130
-0.080733 -0.006189 0.000000 235 235 235
-0.082572 -0.015122 0.000000 235 235 235
-0.081167 0.006676 0.000000 255 255 255
-0.083289 0.000102 0.000000 255 255 255
-0.090194 -0.004936 0.000000 235 235 235
-0.087418 -0.011613 0.000000 235 235 235
-0.081167 0.006676 0.000000 235 235 235
-0.090194 0.004936 0.000000 235 235 235
-0.091152 0.000000 0.000000 235 235 235
-0.083289 0.000102 0.000000 235 235 235
-0.014475 0.000000 0.000000 117 103 92
-0.045200 0.016667 0.000000 235 235 235
-0.073567 0.016667 0.000000 235 235 235
-0.073567 0.007924 0.000000 235 235 235
-0.046438 0.008333 0.000000 235 235 235
-0.082572 0.015122 0.000000 235 235 235
-0.087418 0.011613 0.000000 235 235 235
-0.073567 -0.007719 0.000000 255 255 255
-0.046438 -0.008333 0.000000 255 255 255
-0.013625 -0.015392 0.000000 99 87 78
-0.023275 -0.010720 0.000000 99 87 78
-0.080733 -0.006189 0.000000 255 255 255
4 0 1 2 3
4 4 5 6 7
4 8 9 10 11
4 12 13 14 15
4 16 17 18 19
4 20 7 6 21
4 22 23 24 25
4 26 27 28 29
4 27 0 3 28
4 30 31 32 33
4 34 35 36 37
4 38 39 40 41
4 39 20 21 40
4 42 43 44 45
4 46 47 48 49
4 50 51 52 53
4 54 55 56 57
4 55 58 59 56
4 60 61 16 62
4 61 63 17 16
4 64 65 66 67
4 65 60 62 66
4 68 69 70 71
4 72 73 74 75
4 76 77 78 79
4 80 72 75 81
4 69 4 7 70
4 75 74 82 83
4 84 81 85 86
4 81 75 83 85
4 25 24 87 88
4 53 52 89 90
4 88 87 91 92
4 93 94 95 96
4 45 44 9 8
4 49 48 13 12
4 97 98 31 30
4 56 59 35 34
4 99 100 101 102
4 102 101 93 103
4 103 93 96 104
4 51 105 106 52
4 19 18 43 42
4 3 2 47 46
4 107 108 55 54
4 108 109 58 55
4 52 106 110 89
4 94 88 92 95
4 111 112 113 114
4 115 116 117 118
4 119 120 121 122
4 123 124 125 126
4 127 128 129 130
4 131 132 117 116
4 133 134 135 136
4 26 29 137 138
4 138 137 112 111
4 30 33 139 140
4 141 142 143 144
4 38 41 145 146
4 146 145 132 131
4 147 148 149 150
4 151 152 153 154
4 155 156 157 158
4 54 57 159 160
4 160 159 161 162
4 163 164 127 165
4 165 127 130 166
4 64 67 167 168
4 168 167 164 163
4 169 170 171 172
4 173 174 175 176
4 76 79 177 178
4 179 180 174 173
4 172 171 116 115
4 174 181 182 175
4 84 86 183 180
4 180 183 181 174
4 134 184 185 135
4 156 186 187 157
4 184 188 189 185
4 190 191 192 193
4 148 119 122 149
4 152 123 126 153
4 97 30 140 194
4 159 141 144 161
4 195 196 197 198
4 196 199 190 197
4 199 200 191 190
4 158 157 201 202
4 128 147 150 129
4 112 151 154 113
4 107 54 160 203
4 203 160 162 204
4 157 187 205 201
4 193 192 188 184
