ply
format ascii 1.0
comment Created by Blender 2.68 (sub 0) - www.blender.org, source file: 'pirate07.blend'
element vertex 358
property float x
property float y
property float z
property uchar red
property uchar green
property uchar blue
element face 335
property list uchar uint vertex_indices
end_header
0.032599 0.051638 0.000000 0 0 0
0.008716 0.056889 0.000000 0 0 0
0.008067 0.053936 0.000000 0 0 0
0.031950 0.048686 0.000000 0 0 0
0.031982 0.048831 0.000000 0 0 0
0.008100 0.054083 0.000000 83 43 33
0.000000 0.054437 0.000000 83 43 33
-0.012607 0.053886 0.000000 83 43 33
0.008067 0.053936 0.000000 83 43 33
0.031950 0.048686 0.000000 83 43 33
-0.020660 0.053093 0.000000 83 43 33
-0.028404 0.050744 0.000000 83 43 33
-0.035541 0.046929 0.000000 83 43 33
0.031982 0.048831 0.000000 83 43 33
0.035541 0.046929 0.000000 83 43 33
-0.041796 0.041796 0.000000 83 43 33
0.041796 0.041796 0.000000 83 43 33
-0.046929 0.035541 0.000000 83 43 33
0.000000 0.035848 0.000000 83 43 33
0.046929 0.035541 0.000000 83 43 33
-0.019208 0.033350 0.000000 83 43 33
0.019208 0.033350 0.000000 83 43 33
-0.050744 0.028404 0.000000 83 43 33
0.050744 0.028404 0.000000 83 43 33
-0.034811 0.025540 0.000000 83 43 33
0.034811 0.025540 0.000000 83 43 33
-0.053093 0.020660 0.000000 83 43 33
0.053093 0.020660 0.000000 83 43 33
-0.046426 0.014334 0.000000 83 43 33
0.046426 0.014334 0.000000 83 43 33
-0.053886 0.012607 0.000000 83 43 33
0.053886 0.012607 0.000000 83 43 33
-0.054437 0.000000 0.000000 83 43 33
0.054437 0.000000 0.000000 83 43 33
-0.003685 0.008839 0.000000 255 255 255
0.003685 0.008839 0.000000 255 255 255
0.010010 0.007366 0.000000 255 255 255
-0.010010 0.007366 0.000000 255 255 255
0.014738 0.007758 0.000000 255 255 255
0.012928 0.003901 0.000000 255 255 255
-0.012928 0.003901 0.000000 255 255 255
-0.014738 0.007758 0.000000 255 255 255
0.007369 -0.000058 0.000000 255 255 255
-0.007369 -0.000058 0.000000 255 255 255
0.000000 -0.001161 0.000000 255 255 255
-0.003907 0.011750 0.000000 255 255 255
0.003907 0.011750 0.000000 255 255 255
-0.000521 0.018624 0.000000 255 255 255
0.000000 0.018637 0.000000 255 255 255
0.000521 0.018624 0.000000 255 255 255
0.001042 0.018611 0.000000 255 255 255
-0.001042 0.018611 0.000000 255 255 255
0.001563 0.018599 0.000000 255 255 255
-0.001563 0.018599 0.000000 255 255 255
0.002084 0.018586 0.000000 255 255 255
-0.002084 0.018586 0.000000 255 255 255
0.002605 0.018573 0.000000 255 255 255
-0.002605 0.018573 0.000000 255 255 255
0.003127 0.018560 0.000000 255 255 255
-0.003127 0.018560 0.000000 255 255 255
0.003648 0.018547 0.000000 255 255 255
-0.003648 0.018547 0.000000 255 255 255
0.004169 0.018534 0.000000 255 255 255
-0.004169 0.018534 0.000000 255 255 255
0.010366 0.016844 0.000000 255 255 255
0.010875 0.016705 0.000000 255 255 255
0.007814 0.010410 0.000000 255 255 255
0.018972 0.014496 0.000000 255 255 255
0.021114 0.015360 0.000000 255 255 255
0.023231 0.015449 0.000000 255 255 255
0.026242 0.013885 0.000000 255 255 255
0.026768 0.012626 0.000000 255 255 255
0.026371 0.011651 0.000000 255 255 255
0.023490 0.010435 0.000000 255 255 255
0.014474 0.010067 0.000000 255 255 255
0.024407 0.008184 0.000000 255 255 255
0.016196 0.009597 0.000000 255 255 255
0.016918 0.007952 0.000000 255 255 255
0.023741 0.007282 0.000000 255 255 255
0.018381 0.006887 0.000000 255 255 255
0.022120 0.006609 0.000000 255 255 255
-0.018972 0.014496 0.000000 255 255 255
-0.010875 0.016705 0.000000 255 255 255
-0.007814 0.010410 0.000000 255 255 255
-0.026242 0.013885 0.000000 255 255 255
-0.023231 0.015449 0.000000 255 255 255
-0.021114 0.015360 0.000000 255 255 255
-0.026768 0.012626 0.000000 255 255 255
-0.026371 0.011651 0.000000 255 255 255
-0.023490 0.010435 0.000000 255 255 255
-0.014474 0.010067 0.000000 255 255 255
-0.024407 0.008184 0.000000 255 255 255
-0.016196 0.009597 0.000000 255 255 255
-0.016918 0.007952 0.000000 255 255 255
-0.023741 0.007282 0.000000 255 255 255
-0.018381 0.006887 0.000000 255 255 255
-0.022120 0.006609 0.000000 255 255 255
-0.010366 0.016844 0.000000 255 255 255
-0.023741 0.026406 0.000000 255 255 255
-0.022120 0.027079 0.000000 255 255 255
-0.018381 0.026801 0.000000 255 255 255
-0.016918 0.025735 0.000000 255 255 255
-0.024407 0.025504 0.000000 255 255 255
-0.016196 0.024091 0.000000 255 255 255
-0.023490 0.023252 0.000000 255 255 255
-0.008100 0.021882 0.000000 255 255 255
-0.026371 0.022037 0.000000 255 255 255
-0.026768 0.021062 0.000000 255 255 255
-0.007339 0.021674 0.000000 255 255 255
-0.004169 0.020239 0.000000 255 255 255
-0.026242 0.019803 0.000000 255 255 255
-0.018972 0.019192 0.000000 255 255 255
-0.023231 0.018239 0.000000 255 255 255
-0.010875 0.016983 0.000000 255 255 255
-0.021114 0.018328 0.000000 255 255 255
0.018381 0.026801 0.000000 255 255 255
0.022120 0.027079 0.000000 255 255 255
0.023741 0.026406 0.000000 255 255 255
0.016918 0.025735 0.000000 255 255 255
0.024407 0.025504 0.000000 255 255 255
0.016196 0.024091 0.000000 255 255 255
0.023490 0.023252 0.000000 255 255 255
0.008100 0.021882 0.000000 255 255 255
0.026371 0.022037 0.000000 255 255 255
0.026768 0.021062 0.000000 255 255 255
0.007339 0.021674 0.000000 255 255 255
0.004169 0.020239 0.000000 255 255 255
0.026242 0.019803 0.000000 255 255 255
0.023231 0.018239 0.000000 255 255 255
0.018972 0.019192 0.000000 255 255 255
0.021114 0.018328 0.000000 255 255 255
0.010875 0.016983 0.000000 255 255 255
-0.004169 0.023100 0.000000 255 255 255
0.000000 0.023753 0.000000 255 255 255
0.004169 0.023100 0.000000 255 255 255
0.007313 0.021844 0.000000 255 255 255
-0.007313 0.021844 0.000000 255 255 255
0.002084 0.020304 0.000000 255 255 255
0.001042 0.020336 0.000000 255 255 255
0.000000 0.020368 0.000000 255 255 255
-0.001042 0.020336 0.000000 255 255 255
-0.002084 0.020304 0.000000 255 255 255
0.000521 0.020352 0.000000 255 255 255
-0.000521 0.020352 0.000000 255 255 255
0.001563 0.020320 0.000000 255 255 255
-0.001563 0.020320 0.000000 255 255 255
0.002605 0.020287 0.000000 255 255 255
-0.002605 0.020287 0.000000 255 255 255
0.003127 0.020271 0.000000 255 255 255
-0.003127 0.020271 0.000000 255 255 255
0.003648 0.020255 0.000000 255 255 255
-0.003648 0.020255 0.000000 255 255 255
0.007369 -0.000058 0.000000 0 0 0
0.012928 0.003901 0.000000 0 0 0
0.050744 -0.028404 0.000000 0 0 0
-0.007369 -0.000058 0.000000 0 0 0
-0.050744 -0.028404 0.000000 0 0 0
-0.012928 0.003901 0.000000 0 0 0
0.000000 -0.001161 0.000000 0 0 0
0.046929 -0.035541 0.000000 0 0 0
-0.046929 -0.035541 0.000000 0 0 0
0.041796 -0.041796 0.000000 0 0 0
-0.041796 -0.041796 0.000000 0 0 0
0.035541 -0.046929 0.000000 0 0 0
-0.035541 -0.046929 0.000000 0 0 0
0.028404 -0.050744 0.000000 0 0 0
-0.028404 -0.050744 0.000000 0 0 0
0.020660 -0.053093 0.000000 0 0 0
-0.020660 -0.053093 0.000000 0 0 0
0.012607 -0.053886 0.000000 0 0 0
-0.012607 -0.053886 0.000000 0 0 0
0.000000 -0.054437 0.000000 0 0 0
-0.016196 0.009597 0.000000 0 0 0
-0.014474 0.010067 0.000000 0 0 0
-0.014738 0.007758 0.000000 0 0 0
-0.016918 0.007952 0.000000 0 0 0
-0.018381 0.006887 0.000000 0 0 0
-0.022120 0.006609 0.000000 0 0 0
0.014738 0.007758 0.000000 0 0 0
0.014474 0.010067 0.000000 0 0 0
0.016196 0.009597 0.000000 0 0 0
0.016918 0.007952 0.000000 0 0 0
0.018381 0.006887 0.000000 0 0 0
0.022120 0.006609 0.000000 0 0 0
0.026768 0.012626 0.000000 0 0 0
0.026242 0.013885 0.000000 0 0 0
0.023231 0.015449 0.000000 0 0 0
0.053886 -0.012607 0.000000 0 0 0
0.026371 0.011651 0.000000 0 0 0
0.023490 0.010435 0.000000 0 0 0
0.024407 0.008184 0.000000 0 0 0
0.023741 0.007282 0.000000 0 0 0
0.053093 -0.020660 0.000000 0 0 0
-0.053886 -0.012607 0.000000 0 0 0
-0.023231 0.015449 0.000000 0 0 0
-0.026768 0.012626 0.000000 0 0 0
-0.026242 0.013885 0.000000 0 0 0
-0.026371 0.011651 0.000000 0 0 0
-0.023490 0.010435 0.000000 0 0 0
-0.024407 0.008184 0.000000 0 0 0
-0.023741 0.007282 0.000000 0 0 0
-0.053093 -0.020660 0.000000 0 0 0
0.026768 0.021062 0.000000 0 0 0
0.026371 0.022037 0.000000 0 0 0
0.054437 0.000000 0.000000 0 0 0
0.026242 0.019803 0.000000 0 0 0
0.023231 0.018239 0.000000 0 0 0
0.021114 0.018328 0.000000 0 0 0
0.010875 0.016983 0.000000 0 0 0
0.018972 0.019192 0.000000 0 0 0
0.010366 0.016844 0.000000 0 0 0
0.010875 0.016705 0.000000 0 0 0
0.021114 0.015360 0.000000 0 0 0
0.018972 0.014496 0.000000 0 0 0
-0.054437 0.000000 0.000000 0 0 0
-0.026371 0.022037 0.000000 0 0 0
-0.026768 0.021062 0.000000 0 0 0
-0.026242 0.019803 0.000000 0 0 0
-0.023231 0.018239 0.000000 0 0 0
-0.021114 0.018328 0.000000 0 0 0
-0.018972 0.019192 0.000000 0 0 0
-0.010875 0.016983 0.000000 0 0 0
-0.010366 0.016844 0.000000 0 0 0
-0.010875 0.016705 0.000000 0 0 0
-0.018972 0.014496 0.000000 0 0 0
-0.021114 0.015360 0.000000 0 0 0
-0.019208 0.033350 0.000000 0 0 0
0.000000 0.035848 0.000000 0 0 0
0.019208 0.033350 0.000000 0 0 0
0.022120 0.027079 0.000000 0 0 0
-0.022120 0.027079 0.000000 0 0 0
0.018381 0.026801 0.000000 0 0 0
-0.018381 0.026801 0.000000 0 0 0
0.016918 0.025735 0.000000 0 0 0
-0.016918 0.025735 0.000000 0 0 0
0.016196 0.024091 0.000000 0 0 0
-0.016196 0.024091 0.000000 0 0 0
0.008100 0.021882 0.000000 0 0 0
0.004169 0.023100 0.000000 0 0 0
0.000000 0.023753 0.000000 0 0 0
-0.004169 0.023100 0.000000 0 0 0
-0.008100 0.021882 0.000000 0 0 0
0.007313 0.021844 0.000000 0 0 0
-0.007313 0.021844 0.000000 0 0 0
0.007339 0.021674 0.000000 0 0 0
-0.007339 0.021674 0.000000 0 0 0
0.034811 0.025540 0.000000 0 0 0
0.023741 0.026406 0.000000 0 0 0
0.024407 0.025504 0.000000 0 0 0
0.046426 0.014334 0.000000 0 0 0
0.023490 0.023252 0.000000 0 0 0
-0.034811 0.025540 0.000000 0 0 0
-0.023741 0.026406 0.000000 0 0 0
-0.024407 0.025504 0.000000 0 0 0
-0.046426 0.014334 0.000000 0 0 0
-0.023490 0.023252 0.000000 0 0 0
-0.003685 0.008839 0.000000 0 0 0
-0.010010 0.007366 0.000000 0 0 0
-0.007814 0.010410 0.000000 0 0 0
-0.003907 0.011750 0.000000 0 0 0
0.010010 0.007366 0.000000 0 0 0
0.003685 0.008839 0.000000 0 0 0
0.003907 0.011750 0.000000 0 0 0
0.007814 0.010410 0.000000 0 0 0
0.003571 0.019178 0.000000 255 255 255
0.004092 0.019165 0.000000 255 255 255
0.002744 0.019278 0.000000 255 255 255
0.003265 0.019265 0.000000 255 255 255
0.003678 0.019614 0.000000 255 255 255
0.003157 0.019630 0.000000 255 255 255
0.002626 0.019557 -0.000000 255 255 255
0.002105 0.019573 -0.000000 255 255 255
0.001671 0.019368 0.000000 255 255 255
0.002192 0.019355 0.000000 255 255 255
0.001591 0.019429 0.000000 0 0 0
0.001563 0.020320 0.000000 0 0 0
0.002084 0.020304 0.000000 0 0 0
0.002105 0.019573 -0.000000 0 0 0
0.002192 0.019355 0.000000 0 0 0
0.001671 0.019368 0.000000 0 0 0
0.002626 0.019557 -0.000000 0 0 0
0.002744 0.019278 0.000000 0 0 0
0.002084 0.018586 0.000000 0 0 0
0.002605 0.018573 0.000000 0 0 0
-0.003617 0.019391 0.000000 255 255 255
-0.003096 0.019404 0.000000 255 255 255
-0.002575 0.019374 0.000000 255 255 255
-0.002054 0.019387 0.000000 255 255 255
-0.001563 0.019400 0.000000 255 255 255
-0.001042 0.019413 0.000000 255 255 255
-0.000475 0.019426 0.000000 255 255 255
0.000046 0.019439 0.000000 255 255 255
0.000521 0.019561 -0.000000 255 255 255
0.001042 0.019548 -0.000000 255 255 255
0.001042 0.018611 0.000000 0 0 0
0.001042 0.019548 -0.000000 0 0 0
0.001070 0.019445 0.000000 0 0 0
0.001563 0.018599 0.000000 0 0 0
0.000495 0.019558 0.000000 0 0 0
0.000521 0.020352 0.000000 0 0 0
0.001042 0.020336 0.000000 0 0 0
0.000521 0.019561 -0.000000 0 0 0
0.001591 0.019429 0.000000 255 255 255
0.001070 0.019445 0.000000 255 255 255
0.003265 0.019265 0.000000 0 0 0
0.003157 0.019630 0.000000 0 0 0
0.003678 0.019614 0.000000 0 0 0
0.003571 0.019178 0.000000 0 0 0
0.003127 0.018560 0.000000 0 0 0
0.003648 0.018547 0.000000 0 0 0
0.002605 0.020287 0.000000 0 0 0
0.003127 0.020271 0.000000 0 0 0
0.000046 0.019439 0.000000 0 0 0
-0.000026 0.019574 0.000000 0 0 0
0.000521 0.018624 0.000000 0 0 0
0.000000 0.018637 0.000000 0 0 0
0.000495 0.019558 0.000000 255 255 255
-0.000026 0.019574 0.000000 255 255 255
-0.000521 0.020352 0.000000 0 0 0
0.000000 0.020368 0.000000 0 0 0
-0.000459 0.019609 0.000000 0 0 0
-0.000475 0.019426 0.000000 0 0 0
-0.000981 0.019593 0.000000 0 0 0
-0.001042 0.019413 0.000000 0 0 0
-0.000521 0.018624 0.000000 0 0 0
-0.001042 0.018611 0.000000 0 0 0
-0.000459 0.019609 0.000000 255 255 255
-0.000981 0.019593 0.000000 255 255 255
-0.001563 0.020320 0.000000 0 0 0
-0.001042 0.020336 0.000000 0 0 0
-0.001484 0.019563 0.000000 0 0 0
-0.001563 0.019400 0.000000 0 0 0
-0.002005 0.019547 0.000000 0 0 0
-0.002054 0.019387 0.000000 0 0 0
-0.001563 0.018599 0.000000 0 0 0
-0.002084 0.018586 0.000000 0 0 0
-0.001484 0.019563 0.000000 255 255 255
-0.002005 0.019547 0.000000 255 255 255
-0.002482 0.019710 0.000000 255 255 255
-0.003003 0.019694 0.000000 255 255 255
-0.003401 0.019614 0.000000 255 255 255
-0.003922 0.019598 0.000000 255 255 255
-0.004169 0.020239 0.000000 0 0 0
-0.003922 0.019598 0.000000 0 0 0
-0.004169 0.018534 0.000000 0 0 0
-0.003617 0.019391 0.000000 0 0 0
-0.003648 0.018547 0.000000 0 0 0
-0.003401 0.019614 0.000000 0 0 0
-0.003096 0.019404 0.000000 0 0 0
-0.003648 0.020255 0.000000 0 0 0
-0.003127 0.020271 0.000000 0 0 0
-0.003003 0.019694 0.000000 0 0 0
-0.002575 0.019374 0.000000 0 0 0
-0.003127 0.018560 0.000000 0 0 0
-0.002605 0.018573 0.000000 0 0 0
-0.002482 0.019710 0.000000 0 0 0
-0.002605 0.020287 0.000000 0 0 0
-0.002084 0.020304 0.000000 0 0 0
3 0 1 2
3 3 4 2
3 4 0 2
3 5 6 7
3 8 5 7
3 9 8 7
3 9 7 10
3 9 10 11
3 9 11 12
3 13 9 14
3 9 12 14
3 12 15 14
3 15 16 14
3 15 17 16
3 17 18 16
3 18 19 16
3 17 20 18
3 18 21 19
3 17 22 20
3 21 23 19
3 22 24 20
3 21 25 23
3 22 26 24
3 25 27 23
3 26 28 24
3 25 29 27
3 26 30 28
3 29 31 27
3 30 32 28
3 29 33 31
3 34 35 36
3 37 34 36
3 36 38 39
3 40 41 37
3 37 36 39
3 40 37 39
3 40 39 42
3 43 40 42
3 44 43 42
4 45 46 35 34
3 47 48 49
3 47 49 50
3 51 47 50
3 51 50 52
3 53 51 52
3 53 52 54
3 55 53 54
3 55 54 56
3 57 55 56
3 57 56 58
3 59 57 58
3 59 58 60
3 61 59 60
3 61 60 62
3 61 62 63
3 62 46 63
3 46 45 63
3 46 62 64
3 46 64 65
3 46 65 66
3 66 65 67
3 68 69 70
3 67 68 70
3 66 67 70
3 66 70 71
3 66 71 72
3 66 72 73
3 74 73 75
3 74 66 73
3 74 36 66
3 76 74 75
3 74 38 36
3 77 76 75
3 77 75 78
3 79 77 78
3 79 78 80
3 81 82 83
3 84 85 86
3 84 86 81
3 84 81 83
3 87 84 83
3 88 87 83
3 89 88 83
3 89 83 90
3 91 89 90
3 83 37 90
3 37 41 90
3 91 90 92
3 93 91 92
3 93 94 91
3 93 95 94
3 95 96 94
3 63 45 97
3 45 82 97
3 45 83 82
3 98 99 100
3 98 100 101
3 102 98 101
3 102 101 103
3 104 102 103
3 104 103 105
3 106 104 105
3 107 106 105
3 107 105 108
3 107 108 109
3 110 107 109
3 110 109 63
3 110 63 111
3 112 110 111
3 63 113 111
3 114 112 111
3 63 97 113
3 115 116 117
3 118 115 117
3 118 117 119
3 120 118 119
3 120 119 121
3 122 120 121
3 122 121 123
3 122 123 124
3 125 122 124
3 126 125 124
3 126 124 127
3 62 126 127
3 128 129 127
3 129 62 127
3 128 130 129
3 129 131 62
3 131 64 62
3 132 133 134
3 132 134 135
3 132 135 136
3 135 125 136
3 125 108 136
3 125 126 108
3 126 137 108
3 137 138 108
3 138 139 108
3 139 140 108
3 140 141 108
3 141 109 108
3 138 142 139
3 139 143 140
3 137 144 138
3 140 145 141
3 126 146 137
3 141 147 109
3 126 148 146
3 147 149 109
3 126 150 148
3 149 151 109
3 152 153 154
3 155 156 157
3 158 152 154
3 155 158 156
3 158 154 156
3 154 159 156
3 159 160 156
3 159 161 160
3 161 162 160
3 161 163 162
3 163 164 162
3 163 165 164
3 165 166 164
3 165 167 166
3 167 168 166
3 167 169 168
3 169 170 168
3 169 171 170
3 172 173 174
3 175 172 174
3 176 175 174
3 176 174 157
3 176 157 177
3 157 156 177
3 178 179 180
3 181 178 180
3 181 182 178
3 182 153 178
3 182 183 153
3 183 154 153
3 184 185 186
3 184 186 187
3 188 184 187
3 189 188 187
3 189 187 190
3 187 191 190
3 187 183 191
3 187 154 183
3 187 192 154
3 193 194 195
3 194 196 195
3 197 193 195
3 197 198 193
3 198 199 193
3 199 200 193
3 200 177 193
3 177 156 193
3 156 201 193
3 202 203 204
3 205 202 204
3 206 205 204
3 207 208 209
3 207 206 208
3 206 204 186
3 206 186 208
3 186 210 208
3 186 211 210
3 186 212 211
3 212 213 211
3 204 187 186
3 214 215 216
3 214 216 217
3 214 217 218
3 219 220 221
3 218 219 221
3 194 218 221
3 194 214 218
3 194 221 222
3 194 222 223
3 224 225 223
3 225 194 223
3 194 193 214
3 226 227 228
3 226 228 229
3 230 226 229
3 230 229 231
3 232 230 231
3 233 232 231
3 233 234 232
3 233 235 234
3 235 236 234
3 235 237 238
3 235 238 239
3 235 239 236
3 239 240 236
3 240 241 236
3 237 242 238
3 240 243 241
3 237 244 242
3 243 245 241
3 229 228 246
3 247 229 246
3 248 247 246
3 248 246 249
3 250 248 249
3 250 249 203
3 249 204 203
3 251 226 230
3 251 230 252
3 253 251 252
3 253 254 251
3 253 255 254
3 255 215 254
3 215 214 254
4 256 257 258 259
4 260 261 262 263
4 60 264 265 62
4 56 266 267 58
4 150 268 269 148
4 146 270 271 137
4 52 272 273 54
3 274 275 276
3 274 276 277
3 274 277 278
3 274 278 279
3 278 277 280
3 281 278 280
3 281 282 278
3 281 283 282
4 61 284 285 59
4 57 286 287 55
4 53 288 289 51
4 47 290 291 48
4 49 292 293 50
3 294 295 296
3 294 296 274
3 279 294 274
3 279 297 294
3 298 299 300
3 300 296 295
3 300 295 301
3 298 300 301
4 144 302 303 138
3 304 305 306
3 307 304 306
3 307 308 304
3 307 309 308
3 150 126 268
3 126 62 265
3 126 265 268
3 265 264 268
3 280 310 311
3 280 311 305
3 280 305 304
3 280 304 281
3 312 313 298
3 301 314 298
3 314 312 298
3 314 315 312
4 142 316 317 139
3 318 319 313
3 320 318 313
3 320 313 321
3 313 312 321
3 321 322 320
3 321 323 322
3 321 324 323
3 324 325 323
4 143 326 327 140
3 328 329 322
3 330 328 322
3 330 322 323
3 330 323 331
3 331 332 330
3 331 333 332
3 331 334 333
3 334 335 333
4 145 336 337 141
4 147 338 339 149
4 151 340 341 109
3 342 343 344
3 343 345 344
3 345 346 344
4 345 343 347 348
3 349 350 351
3 347 349 351
3 352 347 351
3 352 348 347
3 352 353 348
3 352 354 353
4 352 351 355 333
3 356 357 332
3 356 332 355
3 332 333 355
