ply
format ascii 1.0
comment Created by Blender 2.68 (sub 0) - www.blender.org, source file: 'Test_Stickman.blend'
element vertex 362
property float x
property float y
property float z
property uchar red
property uchar green
property uchar blue
element face 256
property list uchar uint vertex_indices
end_header
0.875000 0.875000 0.000000 0 0 0
1.000000 0.875000 0.000000 0 0 0
1.000000 1.000000 0.000000 0 0 0
0.875000 1.000000 0.000000 0 0 0
-0.125000 0.875000 0.000000 255 255 255
0.000000 0.875000 0.000000 255 255 255
0.000000 1.000000 0.000000 255 255 255
-0.125000 1.000000 0.000000 255 255 255
-0.125000 -0.125000 0.000000 255 255 255
0.000000 -0.125000 0.000000 255 255 255
0.000000 0.000000 0.000000 255 255 255
-0.125000 0.000000 0.000000 255 255 255
0.875000 -0.125000 0.000000 0 0 0
1.000000 -0.125000 0.000000 0 0 0
1.000000 0.000000 0.000000 0 0 0
0.875000 0.000000 0.000000 0 0 0
0.375000 0.875000 0.000000 0 0 0
0.500000 0.875000 0.000000 0 0 0
0.500000 1.000000 0.000000 0 0 0
0.375000 1.000000 0.000000 0 0 0
0.375000 0.375000 0.000000 0 0 0
0.500000 0.375000 0.000000 0 0 0
0.500000 0.500000 0.000000 0 0 0
0.375000 0.500000 0.000000 0 0 0
0.875000 0.375000 0.000000 0 0 0
1.000000 0.375000 0.000000 0 0 0
1.000000 0.500000 0.000000 0 0 0
0.875000 0.500000 0.000000 0 0 0
-0.625000 0.875000 0.000000 0 0 0
-0.500000 0.875000 0.000000 0 0 0
-0.500000 1.000000 0.000000 0 0 0
-0.625000 1.000000 0.000000 0 0 0
-0.625000 0.375000 0.000000 0 0 0
-0.500000 0.375000 0.000000 0 0 0
-0.500000 0.500000 0.000000 0 0 0
-0.625000 0.500000 0.000000 0 0 0
-0.125000 0.375000 0.000000 255 255 255
0.000000 0.375000 0.000000 255 255 255
0.000000 0.500000 0.000000 255 255 255
-0.125000 0.500000 0.000000 255 255 255
-0.625000 -0.125000 0.000000 0 0 0
-0.500000 -0.125000 0.000000 0 0 0
-0.500000 0.000000 0.000000 0 0 0
-0.625000 0.000000 0.000000 0 0 0
-0.625000 -0.625000 0.000000 0 0 0
-0.500000 -0.625000 0.000000 0 0 0
-0.500000 -0.500000 0.000000 0 0 0
-0.625000 -0.500000 0.000000 0 0 0
-0.125000 -0.625000 0.000000 0 0 0
0.000000 -0.625000 0.000000 0 0 0
0.000000 -0.500000 0.000000 0 0 0
-0.125000 -0.500000 0.000000 0 0 0
0.375000 -0.125000 0.000000 0 0 0
0.500000 -0.125000 0.000000 0 0 0
0.500000 0.000000 0.000000 0 0 0
0.375000 0.000000 0.000000 0 0 0
0.375000 -0.625000 0.000000 0 0 0
0.500000 -0.625000 0.000000 0 0 0
0.500000 -0.500000 0.000000 0 0 0
0.375000 -0.500000 0.000000 0 0 0
0.875000 -0.625000 0.000000 0 0 0
1.000000 -0.625000 0.000000 0 0 0
1.000000 -0.500000 0.000000 0 0 0
0.875000 -0.500000 0.000000 0 0 0
0.625000 0.875000 0.000000 0 0 0
0.750000 0.875000 0.000000 0 0 0
0.750000 1.000000 0.000000 0 0 0
0.625000 1.000000 0.000000 0 0 0
0.625000 0.625000 0.000000 0 0 0
0.750000 0.625000 0.000000 0 0 0
0.750000 0.750000 0.000000 0 0 0
0.625000 0.750000 0.000000 0 0 0
0.875000 0.625000 0.000000 0 0 0
1.000000 0.625000 0.000000 0 0 0
1.000000 0.750000 0.000000 0 0 0
0.875000 0.750000 0.000000 0 0 0
-0.375000 0.875000 0.000000 0 0 0
-0.250000 0.875000 0.000000 0 0 0
-0.250000 1.000000 0.000000 0 0 0
-0.375000 1.000000 0.000000 0 0 0
-0.375000 0.625000 0.000000 255 255 255
-0.250000 0.625000 0.000000 255 255 255
-0.250000 0.750000 0.000000 255 255 255
-0.375000 0.750000 0.000000 255 255 255
-0.125000 0.625000 0.000000 255 255 255
0.000000 0.625000 0.000000 255 255 255
0.000000 0.750000 0.000000 255 255 255
-0.125000 0.750000 0.000000 255 255 255
-0.375000 -0.125000 0.000000 0 0 0
-0.250000 -0.125000 0.000000 0 0 0
-0.250000 0.000000 0.000000 0 0 0
-0.375000 0.000000 0.000000 0 0 0
-0.375000 -0.375000 0.000000 0 0 0
-0.250000 -0.375000 0.000000 0 0 0
-0.250000 -0.250000 0.000000 0 0 0
-0.375000 -0.250000 0.000000 0 0 0
-0.125000 -0.375000 0.000000 255 255 255
0.000000 -0.375000 0.000000 255 255 255
0.000000 -0.250000 0.000000 255 255 255
-0.125000 -0.250000 0.000000 255 255 255
0.625000 -0.125000 0.000000 0 0 0
0.750000 -0.125000 0.000000 0 0 0
0.750000 0.000000 0.000000 0 0 0
0.625000 0.000000 0.000000 0 0 0
0.625000 -0.375000 0.000000 0 0 0
0.750000 -0.375000 0.000000 0 0 0
0.750000 -0.250000 0.000000 0 0 0
0.625000 -0.250000 0.000000 0 0 0
0.875000 -0.375000 0.000000 0 0 0
1.000000 -0.375000 0.000000 0 0 0
1.000000 -0.250000 0.000000 0 0 0
0.875000 -0.250000 0.000000 0 0 0
0.125000 0.875000 0.000000 0 0 0
0.250000 0.875000 0.000000 0 0 0
0.250000 1.000000 0.000000 0 0 0
0.125000 1.000000 0.000000 0 0 0
0.125000 0.625000 0.000000 255 255 255
0.250000 0.625000 0.000000 255 255 255
0.250000 0.750000 0.000000 255 255 255
0.125000 0.750000 0.000000 255 255 255
0.375000 0.625000 0.000000 0 0 0
0.500000 0.625000 0.000000 0 0 0
0.500000 0.750000 0.000000 0 0 0
0.375000 0.750000 0.000000 0 0 0
0.125000 0.375000 0.000000 255 255 255
0.250000 0.375000 0.000000 255 255 255
0.250000 0.500000 0.000000 255 255 255
0.125000 0.500000 0.000000 255 255 255
0.125000 0.125000 0.000000 255 255 255
0.250000 0.125000 0.000000 255 255 255
0.250000 0.250000 0.000000 255 255 255
0.125000 0.250000 0.000000 255 255 255
0.375000 0.125000 0.000000 255 255 255
0.500000 0.125000 0.000000 255 255 255
0.500000 0.250000 0.000000 255 255 255
0.375000 0.250000 0.000000 255 255 255
0.625000 0.375000 0.000000 0 0 0
0.750000 0.375000 0.000000 0 0 0
0.750000 0.500000 0.000000 0 0 0
0.625000 0.500000 0.000000 0 0 0
0.625000 0.125000 0.000000 0 0 0
0.750000 0.125000 0.000000 0 0 0
0.750000 0.250000 0.000000 0 0 0
0.625000 0.250000 0.000000 0 0 0
0.875000 0.125000 0.000000 0 0 0
1.000000 0.125000 0.000000 0 0 0
1.000000 0.250000 0.000000 0 0 0
0.875000 0.250000 0.000000 0 0 0
-0.875000 0.875000 0.000000 0 0 0
-0.750000 0.875000 0.000000 0 0 0
-0.750000 1.000000 0.000000 0 0 0
-0.875000 1.000000 0.000000 0 0 0
-0.875000 0.625000 0.000000 0 0 0
-0.750000 0.625000 0.000000 0 0 0
-0.750000 0.750000 0.000000 0 0 0
-0.875000 0.750000 0.000000 0 0 0
-0.625000 0.625000 0.000000 0 0 0
-0.500000 0.625000 0.000000 0 0 0
-0.500000 0.750000 0.000000 0 0 0
-0.625000 0.750000 0.000000 0 0 0
-0.875000 0.375000 0.000000 0 0 0
-0.750000 0.375000 0.000000 0 0 0
-0.750000 0.500000 0.000000 0 0 0
-0.875000 0.500000 0.000000 0 0 0
-0.875000 0.125000 0.000000 0 0 0
-0.750000 0.125000 0.000000 0 0 0
-0.750000 0.250000 0.000000 0 0 0
-0.875000 0.250000 0.000000 0 0 0
-0.625000 0.125000 0.000000 255 255 255
-0.500000 0.125000 0.000000 255 255 255
-0.500000 0.250000 0.000000 255 255 255
-0.625000 0.250000 0.000000 255 255 255
-0.375000 0.375000 0.000000 0 0 0
-0.250000 0.375000 0.000000 0 0 0
-0.250000 0.500000 0.000000 0 0 0
-0.375000 0.500000 0.000000 0 0 0
-0.375000 0.125000 0.000000 255 255 255
-0.250000 0.125000 0.000000 255 255 255
-0.250000 0.250000 0.000000 255 255 255
-0.375000 0.250000 0.000000 255 255 255
-0.125000 0.125000 0.000000 255 255 255
0.000000 0.125000 0.000000 255 255 255
0.000000 0.250000 0.000000 255 255 255
-0.125000 0.250000 0.000000 255 255 255
-0.875000 -0.125000 0.000000 0 0 0
-0.750000 -0.125000 0.000000 0 0 0
-0.750000 0.000000 0.000000 0 0 0
-0.875000 0.000000 0.000000 0 0 0
-0.875000 -0.375000 0.000000 0 0 0
-0.750000 -0.375000 0.000000 0 0 0
-0.750000 -0.250000 0.000000 0 0 0
-0.875000 -0.250000 0.000000 0 0 0
-0.625000 -0.375000 0.000000 0 0 0
-0.500000 -0.375000 0.000000 0 0 0
-0.500000 -0.250000 0.000000 0 0 0
-0.625000 -0.250000 0.000000 0 0 0
-0.875000 -0.625000 0.000000 0 0 0
-0.750000 -0.625000 0.000000 0 0 0
-0.750000 -0.500000 0.000000 0 0 0
-0.875000 -0.500000 0.000000 0 0 0
-0.875000 -0.875000 0.000000 0 0 0
-0.750000 -0.875000 0.000000 0 0 0
-0.750000 -0.750000 0.000000 0 0 0
-0.875000 -0.750000 0.000000 0 0 0
-0.625000 -0.875000 0.000000 0 0 0
-0.500000 -0.875000 0.000000 0 0 0
-0.500000 -0.750000 0.000000 0 0 0
-0.625000 -0.750000 0.000000 0 0 0
-0.375000 -0.625000 0.000000 255 255 255
-0.250000 -0.625000 0.000000 255 255 255
-0.250000 -0.500000 0.000000 255 255 255
-0.375000 -0.500000 0.000000 255 255 255
-0.375000 -0.875000 0.000000 255 255 255
-0.250000 -0.875000 0.000000 255 255 255
-0.250000 -0.750000 0.000000 255 255 255
-0.375000 -0.750000 0.000000 255 255 255
-0.125000 -0.875000 0.000000 0 0 0
0.000000 -0.875000 0.000000 0 0 0
0.000000 -0.750000 0.000000 0 0 0
-0.125000 -0.750000 0.000000 0 0 0
0.125000 -0.125000 0.000000 0 0 0
0.250000 -0.125000 0.000000 0 0 0
0.250000 0.000000 0.000000 0 0 0
0.125000 0.000000 0.000000 0 0 0
0.125000 -0.375000 0.000000 255 255 255
0.250000 -0.375000 0.000000 255 255 255
0.250000 -0.250000 0.000000 255 255 255
0.125000 -0.250000 0.000000 255 255 255
0.375000 -0.375000 0.000000 0 0 0
0.500000 -0.375000 0.000000 0 0 0
0.500000 -0.250000 0.000000 0 0 0
0.375000 -0.250000 0.000000 0 0 0
0.125000 -0.625000 0.000000 255 255 255
0.250000 -0.625000 0.000000 255 255 255
0.250000 -0.500000 0.000000 255 255 255
0.125000 -0.500000 0.000000 255 255 255
0.125000 -0.875000 0.000000 255 255 255
0.250000 -0.875000 0.000000 255 255 255
0.250000 -0.750000 0.000000 255 255 255
0.125000 -0.750000 0.000000 255 255 255
0.375000 -0.875000 0.000000 0 0 0
0.500000 -0.875000 0.000000 0 0 0
0.500000 -0.750000 0.000000 0 0 0
0.375000 -0.750000 0.000000 0 0 0
0.625000 -0.625000 0.000000 0 0 0
0.750000 -0.625000 0.000000 0 0 0
0.750000 -0.500000 0.000000 0 0 0
0.625000 -0.500000 0.000000 0 0 0
0.625000 -0.875000 0.000000 0 0 0
0.750000 -0.875000 0.000000 0 0 0
0.750000 -0.750000 0.000000 0 0 0
0.625000 -0.750000 0.000000 0 0 0
0.875000 -0.875000 0.000000 0 0 0
1.000000 -0.875000 0.000000 0 0 0
1.000000 -0.750000 0.000000 0 0 0
0.875000 -0.750000 0.000000 0 0 0
-0.125000 0.875000 0.000000 0 0 0
-0.125000 1.000000 0.000000 0 0 0
-0.250000 0.875000 0.000000 255 255 255
-0.125000 -0.125000 0.000000 0 0 0
-0.125000 0.000000 0.000000 0 0 0
-0.125000 -0.250000 0.000000 0 0 0
0.250000 0.750000 0.000000 0 0 0
0.250000 0.375000 0.000000 0 0 0
0.250000 0.500000 0.000000 0 0 0
0.250000 0.250000 0.000000 0 0 0
0.375000 0.250000 0.000000 0 0 0
0.500000 0.250000 0.000000 0 0 0
-0.625000 0.250000 0.000000 0 0 0
-0.500000 0.250000 0.000000 0 0 0
-0.250000 0.375000 0.000000 255 255 255
-0.250000 0.500000 0.000000 255 255 255
-0.250000 0.250000 0.000000 0 0 0
-0.125000 0.250000 0.000000 0 0 0
-0.125000 0.375000 0.000000 0 0 0
-0.125000 -0.625000 0.000000 255 255 255
-0.125000 -0.500000 0.000000 255 255 255
-0.125000 -0.750000 0.000000 255 255 255
0.250000 -0.250000 0.000000 0 0 0
0.375000 -0.625000 0.000000 255 255 255
0.375000 -0.500000 0.000000 255 255 255
0.375000 -0.750000 0.000000 255 255 255
-0.375000 0.750000 0.000000 0 0 0
-0.250000 0.750000 0.000000 0 0 0
-0.375000 0.625000 0.000000 0 0 0
-0.375000 0.500000 0.000000 255 255 255
-0.375000 -0.500000 0.000000 0 0 0
-0.250000 -0.375000 0.000000 255 255 255
-0.375000 -0.375000 0.000000 255 255 255
-0.250000 -0.250000 0.000000 255 255 255
0.000000 -0.500000 0.000000 255 255 255
0.125000 0.875000 0.000000 255 255 255
0.125000 1.000000 0.000000 255 255 255
0.250000 0.875000 0.000000 255 255 255
0.375000 0.625000 0.000000 255 255 255
0.375000 0.750000 0.000000 255 255 255
0.375000 0.500000 0.000000 255 255 255
0.125000 0.250000 0.000000 0 0 0
0.125000 0.375000 0.000000 0 0 0
0.125000 0.000000 0.000000 255 255 255
0.250000 0.000000 0.000000 255 255 255
0.375000 0.000000 0.000000 255 255 255
0.500000 0.000000 0.000000 255 255 255
0.625000 0.125000 0.000000 255 255 255
0.625000 0.250000 0.000000 255 255 255
0.625000 0.000000 0.000000 255 255 255
-1.000000 0.875000 0.000000 0 0 0
-1.000000 1.000000 0.000000 0 0 0
-1.000000 0.750000 0.000000 0 0 0
-1.000000 0.625000 0.000000 0 0 0
-1.000000 0.500000 0.000000 0 0 0
-1.000000 0.375000 0.000000 0 0 0
-1.000000 0.250000 0.000000 0 0 0
-1.000000 0.125000 0.000000 0 0 0
-1.000000 0.000000 0.000000 0 0 0
-0.625000 0.125000 0.000000 0 0 0
-0.625000 0.000000 0.000000 255 255 255
-0.500000 0.000000 0.000000 255 255 255
-0.375000 0.250000 0.000000 0 0 0
-0.375000 0.000000 0.000000 255 255 255
-0.250000 0.000000 0.000000 255 255 255
-1.000000 -0.125000 0.000000 0 0 0
-1.000000 -0.250000 0.000000 0 0 0
-1.000000 -0.375000 0.000000 0 0 0
-1.000000 -0.500000 0.000000 0 0 0
-1.000000 -0.625000 0.000000 0 0 0
-1.000000 -0.750000 0.000000 0 0 0
-1.000000 -0.875000 0.000000 0 0 0
-1.000000 -1.000000 0.000000 0 0 0
-0.875000 -1.000000 0.000000 0 0 0
-0.750000 -1.000000 0.000000 0 0 0
-0.625000 -1.000000 0.000000 0 0 0
-0.500000 -1.000000 0.000000 0 0 0
-0.375000 -0.625000 0.000000 0 0 0
-0.375000 -0.750000 0.000000 0 0 0
-0.375000 -0.875000 0.000000 0 0 0
-0.375000 -1.000000 0.000000 0 0 0
-0.375000 -1.000000 0.000000 255 255 255
-0.250000 -1.000000 0.000000 255 255 255
-0.125000 -0.875000 0.000000 255 255 255
-0.125000 -1.000000 0.000000 255 255 255
-0.125000 -1.000000 0.000000 0 0 0
0.000000 -1.000000 0.000000 0 0 0
0.125000 -0.125000 0.000000 255 255 255
0.125000 -0.250000 0.000000 0 0 0
0.250000 -0.375000 0.000000 0 0 0
0.375000 -0.375000 0.000000 255 255 255
0.125000 -0.625000 0.000000 0 0 0
0.125000 -0.500000 0.000000 0 0 0
0.125000 -0.750000 0.000000 0 0 0
0.125000 -0.875000 0.000000 0 0 0
0.125000 -1.000000 0.000000 0 0 0
0.125000 -1.000000 0.000000 255 255 255
0.250000 -1.000000 0.000000 255 255 255
0.375000 -0.875000 0.000000 255 255 255
0.375000 -1.000000 0.000000 255 255 255
0.375000 -1.000000 0.000000 0 0 0
0.500000 -1.000000 0.000000 0 0 0
0.625000 -1.000000 0.000000 0 0 0
0.750000 -1.000000 0.000000 0 0 0
0.875000 -1.000000 0.000000 0 0 0
1.000000 -1.000000 0.000000 0 0 0
4 0 1 2 3
4 4 5 6 7
4 8 9 10 11
4 12 13 14 15
4 16 17 18 19
4 20 21 22 23
4 24 25 26 27
4 28 29 30 31
4 32 33 34 35
4 36 37 38 39
4 40 41 42 43
4 44 45 46 47
4 48 49 50 51
4 52 53 54 55
4 56 57 58 59
4 60 61 62 63
4 64 65 66 67
4 68 69 70 71
4 72 73 74 75
4 76 77 78 79
4 80 81 82 83
4 84 85 86 87
4 88 89 90 91
4 92 93 94 95
4 96 97 98 99
4 100 101 102 103
4 104 105 106 107
4 108 109 110 111
4 112 113 114 115
4 116 117 118 119
4 120 121 122 123
4 124 125 126 127
4 128 129 130 131
4 132 133 134 135
4 136 137 138 139
4 140 141 142 143
4 144 145 146 147
4 148 149 150 151
4 152 153 154 155
4 156 157 158 159
4 160 161 162 163
4 164 165 166 167
4 168 169 170 171
4 172 173 174 175
4 176 177 178 179
4 180 181 182 183
4 184 185 186 187
4 188 189 190 191
4 192 193 194 195
4 196 197 198 199
4 200 201 202 203
4 204 205 206 207
4 208 209 210 211
4 212 213 214 215
4 216 217 218 219
4 220 221 222 223
4 224 225 226 227
4 228 229 230 231
4 232 233 234 235
4 236 237 238 239
4 240 241 242 243
4 244 245 246 247
4 248 249 250 251
4 252 253 254 255
4 65 0 3 66
4 70 75 0 65
4 75 74 1 0
4 77 256 257 78
4 82 87 4 258
4 87 86 5 4
4 89 259 260 90
4 94 261 259 89
4 99 98 9 8
4 101 12 15 102
4 106 111 12 101
4 111 110 13 12
4 113 16 19 114
4 262 123 16 113
4 123 122 17 16
4 263 20 23 264
4 265 266 20 263
4 266 267 21 20
4 137 24 27 138
4 142 147 24 137
4 147 146 25 24
4 149 28 31 150
4 154 159 28 149
4 159 158 29 28
4 161 32 35 162
4 166 268 32 161
4 268 269 33 32
4 270 36 39 271
4 272 273 274 173
4 183 182 37 36
4 185 40 43 186
4 190 195 40 185
4 195 194 41 40
4 197 44 47 198
4 202 207 44 197
4 207 206 45 44
4 209 275 276 210
4 214 277 275 209
4 219 218 49 48
4 221 52 55 222
4 278 231 52 221
4 231 230 53 52
4 233 279 280 234
4 238 281 279 233
4 243 242 57 56
4 245 60 63 246
4 250 255 60 245
4 255 254 61 60
4 17 64 67 18
4 122 71 64 17
4 71 70 65 64
4 121 68 71 122
4 22 139 68 121
4 139 138 69 68
4 69 72 75 70
4 138 27 72 69
4 27 26 73 72
4 29 76 79 30
4 158 282 76 29
4 282 283 77 76
4 157 284 282 158
4 34 175 284 157
4 285 271 81 80
4 81 84 87 82
4 271 39 84 81
4 39 38 85 84
4 41 88 91 42
4 194 95 88 41
4 95 94 89 88
4 193 92 95 194
4 46 286 92 193
4 211 210 287 288
4 287 96 99 289
4 210 276 96 287
4 276 290 97 96
4 53 100 103 54
4 230 107 100 53
4 107 106 101 100
4 229 104 107 230
4 58 247 104 229
4 247 246 105 104
4 105 108 111 106
4 246 63 108 105
4 63 62 109 108
4 5 291 292 6
4 86 119 291 5
4 119 118 293 291
4 85 116 119 86
4 38 127 116 85
4 127 126 117 116
4 117 294 295 118
4 126 296 294 117
4 23 22 121 120
4 37 124 127 38
4 182 131 124 37
4 297 265 263 298
4 181 128 131 182
4 10 299 128 181
4 299 300 129 128
4 129 132 135 130
4 300 301 132 129
4 301 302 133 132
4 21 136 139 22
4 267 143 136 21
4 143 142 137 136
4 133 303 304 134
4 302 305 303 133
4 103 102 141 140
4 141 144 147 142
4 102 15 144 141
4 15 14 145 144
4 306 148 151 307
4 308 155 148 306
4 155 154 149 148
4 309 152 155 308
4 310 163 152 309
4 163 162 153 152
4 153 156 159 154
4 162 35 156 153
4 35 34 157 156
4 311 160 163 310
4 312 167 160 311
4 167 166 161 160
4 313 164 167 312
4 314 187 164 313
4 187 186 165 164
4 165 315 268 166
4 186 43 315 165
4 316 317 169 168
4 33 172 175 34
4 269 318 172 33
4 318 272 173 172
4 169 176 179 170
4 317 319 176 169
4 319 320 177 176
4 177 180 183 178
4 320 11 180 177
4 11 10 181 180
4 321 184 187 314
4 322 191 184 321
4 191 190 185 184
4 323 188 191 322
4 324 199 188 323
4 199 198 189 188
4 189 192 195 190
4 198 47 192 189
4 47 46 193 192
4 325 196 199 324
4 326 203 196 325
4 203 202 197 196
4 327 200 203 326
4 328 329 200 327
4 329 330 201 200
4 201 204 207 202
4 330 331 204 201
4 331 332 205 204
4 45 333 286 46
4 206 334 333 45
4 215 214 209 208
4 205 335 334 206
4 332 336 335 205
4 337 338 213 212
4 213 339 277 214
4 338 340 339 213
4 341 342 217 216
4 9 343 299 10
4 98 227 343 9
4 344 278 221 220
4 97 224 227 98
4 290 235 224 97
4 235 234 225 224
4 345 228 231 278
4 234 280 346 225
4 59 58 229 228
4 49 347 348 50
4 218 349 347 49
4 239 238 233 232
4 217 350 349 218
4 342 351 350 217
4 352 353 237 236
4 237 354 281 238
4 353 355 354 237
4 356 357 241 240
4 57 244 247 58
4 242 251 244 57
4 251 250 245 244
4 241 248 251 242
4 357 358 248 241
4 358 359 249 248
4 249 252 255 250
4 359 360 252 249
4 360 361 253 252
