ply
format ascii 1.0
comment Created by Blender 2.68 (sub 0) - www.blender.org, source file: 'other_square.blend'
element vertex 56
property float x
property float y
property float z
property uchar red
property uchar green
property uchar blue
element face 28
property list uchar uint vertex_indices
end_header
0.375000 0.375000 0.000000 184 184 184
0.500000 0.375000 0.000000 184 184 184
0.500000 0.500000 0.000000 184 184 184
0.375000 0.500000 0.000000 184 184 184
-0.125000 0.375000 0.000000 184 184 184
0.000000 0.375000 0.000000 184 184 184
0.000000 0.500000 0.000000 184 184 184
-0.125000 0.500000 0.000000 184 184 184
0.375000 -0.125000 0.000000 184 184 184
0.500000 -0.125000 0.000000 184 184 184
0.500000 0.000000 0.000000 184 184 184
0.375000 0.000000 0.000000 184 184 184
0.125000 0.375000 0.000000 184 184 184
0.250000 0.375000 0.000000 184 184 184
0.250000 0.500000 0.000000 184 184 184
0.125000 0.500000 0.000000 184 184 184
0.375000 0.125000 0.000000 184 184 184
0.500000 0.125000 0.000000 184 184 184
0.500000 0.250000 0.000000 184 184 184
0.375000 0.250000 0.000000 184 184 184
-0.375000 0.375000 0.000000 184 184 184
-0.250000 0.375000 0.000000 184 184 184
-0.250000 0.500000 0.000000 184 184 184
-0.375000 0.500000 0.000000 184 184 184
0.375000 -0.375000 0.000000 184 184 184
0.500000 -0.375000 0.000000 184 184 184
0.500000 -0.250000 0.000000 184 184 184
0.375000 -0.250000 0.000000 184 184 184
-0.500000 0.375000 0.000000 184 184 184
-0.500000 0.500000 0.000000 184 184 184
-0.500000 0.250000 0.000000 184 184 184
-0.375000 0.250000 0.000000 184 184 184
-0.500000 0.125000 0.000000 184 184 184
-0.375000 0.125000 0.000000 184 184 184
-0.500000 0.000000 0.000000 184 184 184
-0.375000 0.000000 0.000000 184 184 184
-0.500000 -0.125000 0.000000 184 184 184
-0.375000 -0.125000 0.000000 184 184 184
-0.500000 -0.250000 0.000000 184 184 184
-0.375000 -0.250000 0.000000 184 184 184
-0.500000 -0.375000 0.000000 184 184 184
-0.375000 -0.375000 0.000000 184 184 184
-0.500000 -0.500000 0.000000 184 184 184
-0.375000 -0.500000 0.000000 184 184 184
-0.250000 -0.500000 0.000000 184 184 184
-0.250000 -0.375000 0.000000 184 184 184
-0.125000 -0.500000 0.000000 184 184 184
-0.125000 -0.375000 0.000000 184 184 184
0.000000 -0.500000 0.000000 184 184 184
0.000000 -0.375000 0.000000 184 184 184
0.125000 -0.500000 0.000000 184 184 184
0.125000 -0.375000 0.000000 184 184 184
0.250000 -0.500000 0.000000 184 184 184
0.250000 -0.375000 0.000000 184 184 184
0.375000 -0.500000 0.000000 184 184 184
0.500000 -0.500000 0.000000 184 184 184
4 0 1 2 3
4 4 5 6 7
4 8 9 10 11
4 12 13 14 15
4 16 17 18 19
4 20 21 22 23
4 24 25 26 27
4 13 0 3 14
4 19 18 1 0
4 21 4 7 22
4 27 26 9 8
4 5 12 15 6
4 11 10 17 16
4 28 20 23 29
4 30 31 20 28
4 32 33 31 30
4 34 35 33 32
4 36 37 35 34
4 38 39 37 36
4 40 41 39 38
4 42 43 41 40
4 43 44 45 41
4 44 46 47 45
4 46 48 49 47
4 48 50 51 49
4 50 52 53 51
4 52 54 24 53
4 54 55 25 24
