ply
format ascii 1.0
comment Created by Blender 2.68 (sub 0) - www.blender.org, source file: 'wood_wall00.blend'
element vertex 41
property float x
property float y
property float z
property uchar red
property uchar green
property uchar blue
element face 16
property list uchar uint vertex_indices
end_header
0.250000 0.250000 0.000000 163 115 14
0.500000 0.250000 0.000000 163 115 14
0.500000 0.500000 0.000000 163 115 14
0.250000 0.500000 0.000000 163 115 14
-0.250000 0.250000 0.000000 163 115 14
0.000000 0.250000 0.000000 163 115 14
0.000000 0.500000 0.000000 163 115 14
-0.250000 0.500000 0.000000 163 115 14
-0.250000 -0.250000 0.000000 104 54 0
0.000000 -0.250000 0.000000 104 54 0
0.000000 0.000000 0.000000 104 54 0
-0.250000 0.000000 0.000000 104 54 0
0.250000 -0.250000 0.000000 104 54 0
0.500000 -0.250000 0.000000 104 54 0
0.500000 0.000000 0.000000 104 54 0
0.250000 0.000000 0.000000 104 54 0
0.000000 0.250000 0.000000 104 54 0
0.250000 0.250000 0.000000 104 54 0
0.250000 0.500000 0.000000 104 54 0
0.000000 0.500000 0.000000 104 54 0
0.250000 0.000000 0.000000 163 115 14
0.500000 0.000000 0.000000 163 115 14
-0.500000 0.250000 0.000000 163 115 14
-0.500000 0.500000 0.000000 163 115 14
-0.500000 0.000000 0.000000 104 54 0
-0.250000 0.250000 0.000000 104 54 0
-0.500000 0.250000 0.000000 104 54 0
-0.500000 -0.250000 0.000000 163 115 14
-0.250000 -0.250000 0.000000 163 115 14
-0.250000 0.000000 0.000000 163 115 14
-0.500000 0.000000 0.000000 163 115 14
-0.500000 -0.500000 0.000000 163 115 14
-0.250000 -0.500000 0.000000 163 115 14
-0.250000 -0.500000 0.000000 104 54 0
0.000000 -0.500000 0.000000 104 54 0
0.000000 -0.500000 0.000000 163 115 14
0.250000 -0.500000 0.000000 163 115 14
0.250000 -0.250000 0.000000 163 115 14
0.000000 -0.250000 0.000000 163 115 14
0.500000 -0.500000 0.000000 163 115 14
0.500000 -0.250000 0.000000 163 115 14
4 0 1 2 3
4 4 5 6 7
4 8 9 10 11
4 12 13 14 15
4 16 17 18 19
4 10 15 17 16
4 20 21 1 0
4 22 4 7 23
4 24 11 25 26
4 11 10 16 25
4 27 28 29 30
4 31 32 28 27
4 33 34 9 8
4 9 12 15 10
4 35 36 37 38
4 36 39 40 37
